<svg width="24" height="24" viewBox="0 0 24 24" fill="none" xmlns="http://www.w3.org/2000/svg">
<path fill-rule="evenodd" clip-rule="evenodd" d="M8.33092 3.42857C8.33092 3.04969 8.18041 2.68633 7.9125 2.41842C7.64459 2.15051 7.28122 2 6.90234 2C6.52346 2 6.1601 2.15051 5.89219 2.41842C5.62428 2.68633 5.47377 3.04969 5.47377 3.42857V4.85714H4.0452C3.47688 4.85714 2.93184 5.08291 2.52997 5.48477C2.12811 5.88664 1.90234 6.43168 1.90234 7L1.90234 19.8571C1.90234 20.4255 2.12811 20.9705 2.52997 21.3724C2.93184 21.7742 3.47688 22 4.0452 22H19.7595C20.3278 22 20.8729 21.7742 21.2747 21.3724C21.6766 20.9705 21.9023 20.4255 21.9023 19.8571V7C21.9023 6.43168 21.6766 5.88664 21.2747 5.48477C20.8729 5.08291 20.3278 4.85714 19.7595 4.85714H18.3309V3.42857C18.3309 3.04969 18.1804 2.68633 17.9125 2.41842C17.6446 2.15051 17.2812 2 16.9023 2C16.5235 2 16.1601 2.15051 15.8922 2.41842C15.6243 2.68633 15.4738 3.04969 15.4738 3.42857V4.85714H8.33092V3.42857ZM10.4309 9.75429C10.4309 9.44429 10.6823 9.19429 10.9923 9.19429H12.8138C13.1223 9.19429 13.3738 9.44429 13.3738 9.75429V11.9829H15.6023C15.9123 11.9829 16.1623 12.2343 16.1623 12.5429V14.3643C16.1629 14.4381 16.1488 14.5112 16.1209 14.5795C16.093 14.6478 16.0518 14.7098 15.9997 14.762C15.9476 14.8143 15.8856 14.8556 15.8174 14.8837C15.7492 14.9118 15.6761 14.9261 15.6023 14.9257H13.3738V17.1543C13.3742 17.2279 13.3599 17.3009 13.3319 17.369C13.3039 17.4371 13.2627 17.499 13.2106 17.5511C13.1585 17.6032 13.0966 17.6444 13.0285 17.6724C12.9604 17.7004 12.8874 17.7147 12.8138 17.7143H10.9909C10.9173 17.7147 10.8443 17.7004 10.7762 17.6724C10.7081 17.6444 10.6462 17.6032 10.5941 17.5511C10.542 17.499 10.5008 17.4371 10.4728 17.369C10.4448 17.3009 10.4305 17.2279 10.4309 17.1543V14.9257H8.20234C8.12858 14.9261 8.05547 14.9118 7.98726 14.8837C7.91905 14.8556 7.8571 14.8143 7.80501 14.762C7.75291 14.7098 7.71171 14.6478 7.68379 14.5795C7.65586 14.5112 7.64178 14.4381 7.64234 14.3643V12.5429C7.64234 12.2343 7.89234 11.9829 8.20234 11.9829H10.4309V9.75429Z" fill="currentColor"/>
</svg>
