<svg width="10" height="12" viewBox="0 0 10 12" fill="none" xmlns="http://www.w3.org/2000/svg">
<path d="M4 2V0H5V2H4ZM1.7875 2.7125L0.2875 1.2125L1 0.5L2.5 2L1.7875 2.7125ZM0.5 11.5C0.358333 11.5 0.239583 11.4521 0.14375 11.3562C0.0479167 11.2604 0 11.1417 0 11V7L1.05 4C1.1 3.85 1.18958 3.72917 1.31875 3.6375C1.44792 3.54583 1.59167 3.5 1.75 3.5H3V2.5H4.6375C4.4375 2.78333 4.28125 3.09375 4.16875 3.43125C4.05625 3.76875 4 4.125 4 4.5H1.925L1.1875 6.5H4.6375C4.77917 6.7 4.9375 6.88542 5.1125 7.05625C5.2875 7.22708 5.48333 7.375 5.7 7.5H1V9.5H8V7.9625C8.175 7.9375 8.34583 7.9 8.5125 7.85C8.67917 7.8 8.84167 7.7375 9 7.6625V11C9 11.1417 8.95208 11.2604 8.85625 11.3562C8.76042 11.4521 8.64167 11.5 8.5 11.5H8C7.85833 11.5 7.73958 11.4521 7.64375 11.3562C7.54792 11.2604 7.5 11.1417 7.5 11V10.5H1.5V11C1.5 11.1417 1.45208 11.2604 1.35625 11.3562C1.26042 11.4521 1.14167 11.5 1 11.5H0.5ZM1.5 9H3C3.14167 9 3.26042 8.95208 3.35625 8.85625C3.45208 8.76042 3.5 8.64167 3.5 8.5C3.5 8.35833 3.45208 8.23958 3.35625 8.14375C3.26042 8.04792 3.14167 8 3 8H1.5V9ZM7.5 9V8H6C5.85833 8 5.73958 8.04792 5.64375 8.14375C5.54792 8.23958 5.5 8.35833 5.5 8.5C5.5 8.64167 5.54792 8.76042 5.64375 8.85625C5.73958 8.95208 5.85833 9 6 9H7.5ZM1 7.5V9.5V7.5ZM7.1375 5.625L8.875 3.9L8.35 3.375L7.1375 4.5625L6.65 4.075L6.125 4.6125L7.1375 5.625ZM7.5 2C8.19167 2 8.78125 2.24375 9.26875 2.73125C9.75625 3.21875 10 3.80833 10 4.5C10 5.19167 9.75625 5.78125 9.26875 6.26875C8.78125 6.75625 8.19167 7 7.5 7C6.80833 7 6.21875 6.75625 5.73125 6.26875C5.24375 5.78125 5 5.19167 5 4.5C5 3.80833 5.24375 3.21875 5.73125 2.73125C6.21875 2.24375 6.80833 2 7.5 2Z" fill="white"/>
</svg>
