<svg width="10" height="9" viewBox="0 0 10 9" fill="none" xmlns="http://www.w3.org/2000/svg">
<path d="M8.36 5.86797C8.535 5.44673 8.63 4.99576 8.63 4.50019C8.63 4.14337 8.575 3.80143 8.48 3.48426C8.155 3.5586 7.815 3.59824 7.46 3.59824C6.73299 3.59902 6.01644 3.42654 5.37076 3.09535C4.72509 2.76415 4.16922 2.28396 3.75 1.69524C3.30198 2.771 2.45586 3.63623 1.385 4.11364C1.365 4.23753 1.365 4.37134 1.365 4.50019C1.365 4.97332 1.45902 5.44181 1.6417 5.87893C1.82437 6.31604 2.09213 6.71322 2.42967 7.04777C3.11136 7.72343 4.03594 8.10301 5 8.10301C5.525 8.10301 6.03 7.98903 6.485 7.78584C6.77 8.32602 6.9 8.59363 6.89 8.59363C6.07 8.8662 5.435 9 5 9C3.79 9 2.635 8.5292 1.785 7.68177C1.26752 7.1713 0.883135 6.54369 0.665 5.8531H0V3.59824H0.545C0.710121 2.80161 1.08975 2.06415 1.64359 1.4641C2.19744 0.864048 2.90485 0.423797 3.69076 0.19006C4.47668 -0.0436766 5.31177 -0.0621802 6.10743 0.136513C6.9031 0.335206 7.62965 0.743683 8.21 1.3186C8.83989 1.94083 9.26965 2.7341 9.445 3.59824H10V5.8531H9.97L8.19 7.47363L5.54 7.17629V6.34868H7.955L8.36 5.86797ZM3.635 4.38621C3.785 4.38621 3.93 4.44567 4.035 4.5547C4.14052 4.66014 4.19973 4.80264 4.19973 4.95116C4.19973 5.09968 4.14052 5.24218 4.035 5.34762C3.93 5.45169 3.785 5.51116 3.635 5.51116C3.32 5.51116 3.065 5.26337 3.065 4.95116C3.065 4.63895 3.32 4.38621 3.635 4.38621ZM6.36 4.38621C6.675 4.38621 6.925 4.63895 6.925 4.95116C6.925 5.26337 6.675 5.51116 6.36 5.51116C6.045 5.51116 5.79 5.26337 5.79 4.95116C5.79 4.80132 5.85005 4.65763 5.95695 4.55168C6.06385 4.44573 6.20883 4.38621 6.36 4.38621Z" fill="white"/>
</svg>
