<svg width="16" height="11" viewBox="0 0 16 11" fill="none" xmlns="http://www.w3.org/2000/svg">
<path d="M11.4885 5.09961V2.09961C11.4885 1.70178 11.3246 1.32025 11.0329 1.03895C10.7412 0.757645 10.3455 0.599609 9.93294 0.599609H2.15516C1.74261 0.599609 1.34694 0.757645 1.05522 1.03895C0.763498 1.32025 0.599609 1.70178 0.599609 2.09961V8.09961C0.599609 8.49743 0.763498 8.87896 1.05522 9.16027C1.34694 9.44157 1.74261 9.59961 2.15516 9.59961H9.93294C10.3455 9.59961 10.7412 9.44157 11.0329 9.16027C11.3246 8.87896 11.4885 8.49743 11.4885 8.09961V5.09961ZM11.4885 5.09961L14.5996 2.09961V8.09961L11.4885 5.09961ZM6.04405 2.84961V5.09961M6.04405 5.09961V7.34961M6.04405 5.09961H8.37739M6.04405 5.09961H3.71072" stroke="white" stroke-width="1.2" stroke-linecap="round" stroke-linejoin="round"/>
</svg>
