<svg width="17" height="17" viewBox="0 0 17 17" fill="none" xmlns="http://www.w3.org/2000/svg">
<path d="M8.33333 0C3.725 0 0 3.725 0 8.33333C0 12.9417 3.725 16.6667 8.33333 16.6667C12.9417 16.6667 16.6667 12.9417 16.6667 8.33333C16.6667 3.725 12.9417 0 8.33333 0ZM8.33333 15C4.65833 15 1.66667 12.0083 1.66667 8.33333C1.66667 4.65833 4.65833 1.66667 8.33333 1.66667C12.0083 1.66667 15 4.65833 15 8.33333C15 12.0083 12.0083 15 8.33333 15ZM11.325 4.16667L8.33333 7.15833L5.34167 4.16667L4.16667 5.34167L7.15833 8.33333L4.16667 11.325L5.34167 12.5L8.33333 9.50833L11.325 12.5L12.5 11.325L9.50833 8.33333L12.5 5.34167L11.325 4.16667Z" fill="#E22A36"/>
</svg>
