<svg width="20" height="20" viewBox="0 0 20 20" fill="none" xmlns="http://www.w3.org/2000/svg">
<path d="M12.916 14.1673C13.2632 14.1673 13.5585 14.0459 13.8018 13.8032C14.0452 13.5604 14.1666 13.2651 14.166 12.9173C14.1655 12.5695 14.0441 12.2745 13.8018 12.0323C13.5596 11.7901 13.2643 11.6684 12.916 11.6673C12.5677 11.6662 12.2727 11.7879 12.031 12.0323C11.7893 12.2768 11.6677 12.5718 11.666 12.9173C11.6643 13.2629 11.786 13.5582 12.031 13.8032C12.276 14.0482 12.571 14.1695 12.916 14.1673ZM5.41602 14.1673C5.76324 14.1673 6.05852 14.0459 6.30185 13.8032C6.54518 13.5604 6.66657 13.2651 6.66602 12.9173C6.66546 12.5695 6.54407 12.2745 6.30185 12.0323C6.05963 11.7901 5.76435 11.6684 5.41602 11.6673C5.06768 11.6662 4.77268 11.7879 4.53102 12.0323C4.28935 12.2768 4.16768 12.5718 4.16602 12.9173C4.16435 13.2629 4.28602 13.5582 4.53102 13.8032C4.77602 14.0482 5.07102 14.1695 5.41602 14.1673ZM2.91602 18.334C2.56879 18.334 2.27379 18.2126 2.03102 17.9698C1.78824 17.727 1.66657 17.4318 1.66602 17.084V11.1257C1.66602 11.0284 1.67296 10.9312 1.68685 10.834C1.70074 10.7368 1.72157 10.6465 1.74935 10.5632L3.41602 5.83398C3.49935 5.58398 3.64879 5.3826 3.86435 5.22982C4.0799 5.07704 4.31935 5.00065 4.58268 5.00065H6.66602V4.16732C6.66602 3.93121 6.74574 3.73343 6.90518 3.57398C7.06463 3.41454 7.26268 3.33454 7.49935 3.33398H7.93685C8.17296 3.33398 8.35352 3.43121 8.47852 3.62565C8.60352 3.8201 8.63129 4.02843 8.56185 4.25065C8.4924 4.52843 8.43685 4.80287 8.39518 5.07398C8.35352 5.3451 8.33268 5.61926 8.33268 5.89648C8.33268 6.10482 8.26324 6.28537 8.12435 6.43815C7.98546 6.59093 7.81185 6.66732 7.60352 6.66732H4.87435L3.99935 9.16732H8.97852C9.10352 9.16732 9.22518 9.1951 9.34352 9.25065C9.46185 9.30621 9.5624 9.38954 9.64518 9.50065C10.2007 10.1812 10.871 10.7126 11.656 11.0948C12.441 11.477 13.2777 11.6679 14.166 11.6673C14.4299 11.6673 14.6868 11.6501 14.9368 11.6157C15.1868 11.5812 15.4368 11.529 15.6868 11.459C15.923 11.3895 16.1452 11.4279 16.3535 11.574C16.5618 11.7201 16.666 11.9109 16.666 12.1465V17.084C16.666 17.4312 16.5446 17.7265 16.3018 17.9698C16.0591 18.2132 15.7638 18.3345 15.416 18.334C15.0682 18.3334 14.7732 18.212 14.531 17.9698C14.2888 17.7276 14.1671 17.4323 14.166 17.084V16.6673H4.16602V17.084C4.16602 17.4312 4.04463 17.7265 3.80185 17.9698C3.55907 18.2132 3.26379 18.3345 2.91602 18.334Z" fill="#E22A36"/>
<path d="M14.166 9.16601C14.6586 9.16662 15.1464 9.0699 15.6014 8.8814C16.0565 8.69291 16.4698 8.41636 16.8176 8.06764C17.1664 7.71979 17.4429 7.30647 17.6314 6.85142C17.8199 6.39637 17.9166 5.90856 17.916 5.41602C17.9166 4.92347 17.8199 4.43566 17.6314 3.98061C17.4429 3.52556 17.1664 3.11224 16.8176 2.76439C16.4698 2.41567 16.0565 2.13912 15.6014 1.95063C15.1464 1.76213 14.6586 1.66541 14.166 1.66602C13.6735 1.66541 13.1857 1.76213 12.7306 1.95063C12.2756 2.13912 11.8622 2.41567 11.5144 2.76439C11.1657 3.11224 10.8891 3.52556 10.7006 3.98061C10.5121 4.43566 10.4154 4.92347 10.416 5.41602C10.4154 5.90856 10.5121 6.39637 10.7006 6.85142C10.8891 7.30647 11.1657 7.71979 11.5144 8.06764C11.8622 8.41636 12.2756 8.69291 12.7306 8.8814C13.1857 9.0699 13.6735 9.16662 14.166 9.16601Z" stroke="#E22A36" stroke-width="1.4" stroke-linejoin="round"/>
<path d="M12.6641 5.41601L13.7891 6.54101L16.0391 4.29102" stroke="#E22A36" stroke-width="1.4" stroke-linecap="round" stroke-linejoin="round"/>
</svg>
