<svg width="17" height="17" viewBox="0 0 17 17" fill="none" xmlns="http://www.w3.org/2000/svg">
<path d="M4.81066 2.68119L3.60399 1.47452C5.20762 0.367562 7.1486 -0.142118 9.0892 0.0341685C11.0298 0.210455 12.8472 1.06155 14.2251 2.43936C15.603 3.81716 16.4542 5.63447 16.6306 7.57505C16.807 9.51563 16.2975 11.4566 15.1907 13.0604L13.9865 11.8562C14.7843 10.5794 15.1259 9.06992 14.9555 7.57403C14.7851 6.07814 14.1127 4.68416 13.0481 3.61957C11.9835 2.55497 10.5895 1.8826 9.09366 1.71218C7.59777 1.54176 6.08744 1.88334 4.81066 2.68119ZM15.3015 15.3054L14.2357 16.3712L13.0582 15.1929C11.4546 16.2989 9.51402 16.8078 7.57402 16.6312C5.63402 16.4546 3.81729 15.6036 2.43978 14.2262C1.06227 12.8488 0.211126 11.0321 0.0343707 9.0921C-0.142385 7.15211 0.36643 5.21153 1.47233 3.60786L0.297328 2.43286L1.36233 1.36619L2.43733 2.44286L3.61816 3.62036L7.49899 7.50369V4.16869H8.74899V8.54369L12.499 10.7687L11.874 11.7937L11.6623 11.667L15.3015 15.3054ZM11.8548 13.9887L7.02733 9.16202L2.67899 4.81369C1.88115 6.09047 1.53956 7.59996 1.70999 9.09585C1.88041 10.5917 2.55278 11.9857 3.61737 13.0503C4.68197 14.1149 6.07594 14.7873 7.57183 14.9577C9.06772 15.1281 10.578 14.7865 11.8548 13.9887Z" fill="#E22A36"/>
</svg>
