<svg width="16" height="16" viewBox="0 0 16 16" fill="none" xmlns="http://www.w3.org/2000/svg">
<g clip-path="url(#clip0_2763_3969)">
<path fill-rule="evenodd" clip-rule="evenodd" d="M5.04343 0.714286C5.04343 0.32 5.36343 0 5.75771 0H10.2423C10.6366 0 10.9566 0.32 10.9566 0.714286V5.04343H15.2857C15.68 5.04343 16 5.36343 16 5.75771V10.2423C16 10.6366 15.68 10.9566 15.2857 10.9566H10.9566V15.2857C10.9566 15.68 10.6366 16 10.2423 16H5.75771C5.56827 16 5.38659 15.9247 5.25264 15.7908C5.11868 15.6568 5.04343 15.4752 5.04343 15.2857V10.9566H0.714286C0.524845 10.9566 0.343164 10.8813 0.209209 10.7474C0.0752549 10.6134 0 10.4317 0 10.2423L0 5.75771C0 5.36343 0.32 5.04343 0.714286 5.04343H5.04343V0.714286ZM6.472 1.42857V5.75771C6.472 6.15314 6.152 6.472 5.75771 6.472H1.42857V9.528H5.75771C6.15314 9.528 6.472 9.848 6.472 10.2423V14.5714H9.528V10.2423C9.528 9.84686 9.848 9.528 10.2423 9.528H14.5714V6.472H10.2423C10.0528 6.472 9.87117 6.39675 9.73721 6.26279C9.60326 6.12884 9.528 5.94715 9.528 5.75771V1.42857H6.472Z" fill="#E22A36"/>
</g>
<defs>
<clipPath id="clip0_2763_3969">
<rect width="16" height="16" fill="white"/>
</clipPath>
</defs>
</svg>
