<svg width="16" height="13" viewBox="0 0 16 13" fill="none" xmlns="http://www.w3.org/2000/svg">
<path d="M15.4483 11.9167H14.8966V6.5C14.8966 6.21268 14.7803 5.93713 14.5734 5.73397C14.3664 5.5308 14.0858 5.41667 13.7931 5.41667H9.93103V1.08333C9.93103 0.796016 9.81478 0.520465 9.60784 0.317301C9.4009 0.114137 9.12024 0 8.82759 0H2.2069C1.91424 0 1.63358 0.114137 1.42664 0.317301C1.2197 0.520465 1.10345 0.796016 1.10345 1.08333V11.9167H0.551724C0.405398 11.9167 0.265065 11.9737 0.161596 12.0753C0.0581279 12.1769 0 12.3147 0 12.4583C0 12.602 0.0581279 12.7398 0.161596 12.8414C0.265065 12.9429 0.405398 13 0.551724 13H15.4483C15.5946 13 15.7349 12.9429 15.8384 12.8414C15.9419 12.7398 16 12.602 16 12.4583C16 12.3147 15.9419 12.1769 15.8384 12.0753C15.7349 11.9737 15.5946 11.9167 15.4483 11.9167ZM13.7931 6.5V11.9167H9.93103V6.5H13.7931ZM2.2069 1.08333H8.82759V11.9167H7.72414V8.66667C7.72414 8.52301 7.66601 8.38523 7.56254 8.28365C7.45907 8.18207 7.31874 8.125 7.17241 8.125H3.86207C3.71574 8.125 3.57541 8.18207 3.47194 8.28365C3.36847 8.38523 3.31034 8.52301 3.31034 8.66667V11.9167H2.2069V1.08333ZM6.62069 11.9167H4.41379V9.20833H6.62069V11.9167ZM3.31034 4.33333C3.31034 4.18967 3.36847 4.0519 3.47194 3.95032C3.57541 3.84874 3.71574 3.79167 3.86207 3.79167H4.96552V2.70833C4.96552 2.56467 5.02365 2.4269 5.12711 2.32532C5.23058 2.22374 5.37091 2.16667 5.51724 2.16667C5.66357 2.16667 5.8039 2.22374 5.90737 2.32532C6.01084 2.4269 6.06897 2.56467 6.06897 2.70833V3.79167H7.17241C7.31874 3.79167 7.45907 3.84874 7.56254 3.95032C7.66601 4.0519 7.72414 4.18967 7.72414 4.33333C7.72414 4.47699 7.66601 4.61477 7.56254 4.71635C7.45907 4.81793 7.31874 4.875 7.17241 4.875H6.06897V5.95833C6.06897 6.10199 6.01084 6.23977 5.90737 6.34135C5.8039 6.44293 5.66357 6.5 5.51724 6.5C5.37091 6.5 5.23058 6.44293 5.12711 6.34135C5.02365 6.23977 4.96552 6.10199 4.96552 5.95833V4.875H3.86207C3.71574 4.875 3.57541 4.81793 3.47194 4.71635C3.36847 4.61477 3.31034 4.47699 3.31034 4.33333Z" fill="#E22A36"/>
</svg>
