<svg width="20" height="20" viewBox="0 0 20 20" fill="none" xmlns="http://www.w3.org/2000/svg">
<path d="M14.9283 3.94444C17.6844 6.55328 17.6844 10.7284 14.965 13.3027L10.003 18L5.03932 13.3027C4.39378 12.6957 3.88083 11.9705 3.53062 11.17C3.18041 10.3694 3 9.50949 3 8.64085C3 7.77221 3.18041 6.91233 3.53062 6.11175C3.88083 5.31117 4.39378 4.58603 5.03932 3.97896L5.07607 3.94444C6.38867 2.69851 8.15814 2 10.0017 2C11.8453 2 13.6157 2.69851 14.9283 3.94444ZM14.9283 3.94444C14.8915 3.90907 14.8915 3.90907 14.9283 3.94444ZM11.7504 7.89475C11.7504 8.34143 11.566 8.76981 11.2378 9.08566C10.9096 9.40151 10.4645 9.57896 10.0004 9.57896C9.5363 9.57896 9.09119 9.40151 8.76302 9.08566C8.43484 8.76981 8.25047 8.34143 8.25047 7.89475C8.25047 7.44807 8.43484 7.01968 8.76302 6.70383C9.09119 6.38798 9.5363 6.21054 10.0004 6.21054C10.4645 6.21054 10.9096 6.38798 11.2378 6.70383C11.566 7.01968 11.7504 7.44807 11.7504 7.89475Z" stroke="#E22A36" stroke-width="1.2" stroke-miterlimit="10" stroke-linecap="round" stroke-linejoin="round"/>
</svg>
