<svg width="14" height="14" viewBox="0 0 14 14" fill="none" xmlns="http://www.w3.org/2000/svg">
<path d="M4.75 11.4167L1.27667 12.5747C1.21649 12.5948 1.15239 12.6002 1.08967 12.5907C1.02695 12.5811 0.967405 12.5568 0.915954 12.5196C0.864502 12.4825 0.82262 12.4337 0.793764 12.3772C0.764908 12.3207 0.749908 12.2581 0.75 12.1947V2.372C0.750018 2.28809 0.776421 2.20631 0.825473 2.13824C0.874526 2.07016 0.943744 2.01924 1.02333 1.99267L4.75 0.75M4.75 11.4167L8.75 12.75M4.75 11.4167V0.75M4.75 0.75L8.75 2.08333M8.75 12.75L12.4767 11.508C12.5564 11.4814 12.6257 11.4304 12.6747 11.3622C12.7238 11.2939 12.7501 11.212 12.75 11.128V1.30467C12.75 1.24128 12.7349 1.1788 12.706 1.12238C12.6771 1.06596 12.6352 1.01722 12.5838 0.980173C12.5323 0.943126 12.4728 0.918834 12.4102 0.909299C12.3475 0.899764 12.2835 0.90526 12.2233 0.925333L8.75 2.08333M8.75 12.75V2.08333" stroke="#E22A36" stroke-width="1.5" stroke-linecap="round" stroke-linejoin="round"/>
</svg>
