<svg width="20" height="20" viewBox="0 0 20 20" fill="none" xmlns="http://www.w3.org/2000/svg">
<path d="M10.8327 8.33398H9.16602V10.834H6.66602V12.5007H9.16602V15.0007H10.8327V12.5007H13.3327V10.834H10.8327V8.33398Z" fill="#E22A36"/>
<path d="M3.33268 18.3327H16.666C17.5827 18.3327 18.3327 17.5827 18.3327 16.666V6.66602C18.3327 5.74935 17.5827 4.99935 16.666 4.99935H14.166V3.33268C14.166 2.41602 13.416 1.66602 12.4993 1.66602H7.49935C6.58268 1.66602 5.83268 2.41602 5.83268 3.33268V4.99935H3.33268C2.41602 4.99935 1.66602 5.74935 1.66602 6.66602V16.666C1.66602 17.5827 2.41602 18.3327 3.33268 18.3327ZM7.49935 3.33268H12.4993V4.99935H7.49935V3.33268ZM3.33268 6.66602H16.666V16.666H3.33268V6.66602Z" fill="#E22A36"/>
</svg>
