<svg width="16" height="16" viewBox="0 0 16 16" fill="none" xmlns="http://www.w3.org/2000/svg">
<path d="M13.9993 7.33572H13.882L12.6667 3.78039L2.23535 7.33572L1.99935 7.33372M1.66602 7.33639H1.99935L9.43002 1.40039L11.308 4.03372" stroke="#E22A36" stroke-width="1.5" stroke-linecap="square"/>
<path d="M9.66536 10.6667C9.66536 11.1087 9.48977 11.5326 9.17721 11.8452C8.86465 12.1577 8.44073 12.3333 7.9987 12.3333C7.55667 12.3333 7.13275 12.1577 6.82019 11.8452C6.50763 11.5326 6.33203 11.1087 6.33203 10.6667C6.33203 10.2246 6.50763 9.80072 6.82019 9.48816C7.13275 9.17559 7.55667 9 7.9987 9C8.44073 9 8.86465 9.17559 9.17721 9.48816C9.48977 9.80072 9.66536 10.2246 9.66536 10.6667Z" stroke="#E22A36" stroke-width="1.5" stroke-linecap="square"/>
<path d="M14.3327 7.33398V14.0007H1.66602V7.33398H14.3327Z" stroke="#E22A36" stroke-width="1.5" stroke-linecap="square"/>
<path d="M1.66602 7.33398H2.99935C2.99935 7.68761 2.85887 8.02674 2.60882 8.27679C2.35878 8.52684 2.01964 8.66732 1.66602 8.66732V7.33398ZM14.3327 7.33398H12.9994C12.9994 7.68761 13.1398 8.02674 13.3899 8.27679C13.6399 8.52684 13.9791 8.66732 14.3327 8.66732V7.33398ZM1.66602 14.0007H3.00068C3.00086 13.8253 2.96646 13.6517 2.89944 13.4897C2.83243 13.3277 2.73413 13.1805 2.61016 13.0565C2.48619 12.9325 2.33899 12.8342 2.17698 12.7672C2.01497 12.7002 1.84134 12.6658 1.66602 12.666V14.0007ZM14.3327 14.0007H12.9994C12.9994 13.647 13.1398 13.3079 13.3899 13.0578C13.6399 12.8078 13.9791 12.6673 14.3327 12.6673V14.0007Z" stroke="#E22A36" stroke-width="1.5" stroke-linecap="square"/>
</svg>
