<svg width="15" height="10" viewBox="0 0 15 10" fill="none" xmlns="http://www.w3.org/2000/svg">
<path d="M10.084 5.41749L13.566 7.73883C13.6162 7.77223 13.6745 7.79139 13.7347 7.79427C13.7949 7.79715 13.8548 7.78365 13.908 7.75519C13.9611 7.72673 14.0056 7.68438 14.0366 7.63267C14.0676 7.58095 14.084 7.52179 14.084 7.46149V1.99749C14.084 1.93884 14.0685 1.88123 14.0392 1.83046C14.0098 1.77969 13.9675 1.73758 13.9167 1.70836C13.8658 1.67914 13.8082 1.66387 13.7495 1.66406C13.6909 1.66426 13.6333 1.67993 13.5827 1.70949L10.084 3.75083" stroke="#E22A36" stroke-width="1.5" stroke-linecap="round" stroke-linejoin="round"/>
<path d="M8.75 0.75H2.08333C1.34695 0.75 0.75 1.34695 0.75 2.08333V7.41667C0.75 8.15305 1.34695 8.75 2.08333 8.75H8.75C9.48638 8.75 10.0833 8.15305 10.0833 7.41667V2.08333C10.0833 1.34695 9.48638 0.75 8.75 0.75Z" stroke="#E22A36" stroke-width="1.5" stroke-linecap="round" stroke-linejoin="round"/>
</svg>
