<svg width="20" height="20" viewBox="0 0 20 20" fill="none" xmlns="http://www.w3.org/2000/svg">
<path d="M15.376 11.78C15.656 11.0779 15.808 10.3263 15.808 9.50031C15.808 8.90562 15.72 8.33571 15.568 7.8071C15.048 7.93099 14.504 7.99707 13.936 7.99707C12.7728 7.99836 11.6263 7.7109 10.5932 7.15891C9.56014 6.60692 8.67074 5.8066 8 4.8254C7.28317 6.61833 5.92937 8.06038 4.216 8.85607C4.184 9.06256 4.184 9.28556 4.184 9.50031C4.184 10.2889 4.33444 11.0697 4.62672 11.7982C4.919 12.5267 5.3474 13.1887 5.88747 13.7463C6.97818 14.8724 8.4575 15.505 10 15.505C10.84 15.505 11.648 15.315 12.376 14.9764C12.832 15.8767 13.04 16.3227 13.024 16.3227C11.712 16.777 10.696 17 10 17C8.064 17 6.216 16.2153 4.856 14.803C4.02804 13.9522 3.41302 12.9061 3.064 11.7552H2V7.99707H2.872C3.13619 6.66936 3.74359 5.44025 4.62975 4.44016C5.51591 3.44008 6.64777 2.70633 7.90522 2.31677C9.16268 1.92721 10.4988 1.89637 11.7719 2.22752C13.045 2.55868 14.2074 3.23947 15.136 4.19767C16.1438 5.23472 16.8314 6.55684 17.112 7.99707H18V11.7552H17.952L15.104 14.4561L10.864 13.9605V12.5811H14.728L15.376 11.78ZM7.816 9.31034C8.056 9.31034 8.288 9.40946 8.456 9.59117C8.62484 9.76691 8.71957 10.0044 8.71957 10.2519C8.71957 10.4995 8.62484 10.737 8.456 10.9127C8.288 11.0861 8.056 11.1853 7.816 11.1853C7.312 11.1853 6.904 10.7723 6.904 10.2519C6.904 9.73158 7.312 9.31034 7.816 9.31034ZM12.176 9.31034C12.68 9.31034 13.08 9.73158 13.08 10.2519C13.08 10.7723 12.68 11.1853 12.176 11.1853C11.672 11.1853 11.264 10.7723 11.264 10.2519C11.264 10.0022 11.3601 9.76271 11.5311 9.58613C11.7022 9.40955 11.9341 9.31034 12.176 9.31034Z" fill="#E22A36"/>
</svg>
