<svg width="42" height="42" viewBox="0 0 42 42" fill="none" xmlns="http://www.w3.org/2000/svg">
<path d="M10.5 42V31.5H0V10.5H10.5V0H31.5V10.5H42V31.5H31.5V42H10.5ZM4.2 18.9H14.7C15.05 18.9 15.3825 18.9875 15.6975 19.1625C16.0125 19.3375 16.2575 19.565 16.4325 19.845L18.27 22.575L21.105 14.07C21.245 13.65 21.4987 13.3 21.8662 13.02C22.2337 12.74 22.645 12.6 23.1 12.6C23.45 12.6 23.7825 12.6875 24.0975 12.8625C24.4125 13.0375 24.6575 13.265 24.8325 13.545L28.4025 18.9H37.8V14.7H27.3V4.2H14.7V14.7H4.2V18.9ZM14.7 37.8H27.3V27.3H37.8V23.1H27.3C26.95 23.1 26.6175 23.0125 26.3025 22.8375C25.9875 22.6625 25.725 22.435 25.515 22.155L23.73 19.425L20.895 27.93C20.755 28.35 20.4925 28.7 20.1075 28.98C19.7225 29.26 19.3025 29.4 18.8475 29.4C18.4975 29.4 18.165 29.3125 17.85 29.1375C17.535 28.9625 17.29 28.735 17.115 28.455L13.545 23.1H4.2V27.3H14.7V37.8Z" fill="white" fill-opacity="0.3"/>
</svg>
