<svg width="82" height="23" viewBox="0 0 82 23" fill="none" xmlns="http://www.w3.org/2000/svg">
<path d="M0 20.1104C0 21.1739 1.349 22 2.0748 22V18.2506H2.35094C26.0562 18.2506 74.2189 18 75.6295 18C77.3927 18 80.2258 15.6468 80.2258 10.8113C79.9907 5.1574 76.7789 3.24798 75.2116 3H2.97132C1.79586 3 0 4.19013 0 5.60376V20.1104Z" fill="url(#paint0_linear_3751_19783)"/>
<path d="M2.50705 23.0002V18C1.25353 18 0 18.7495 0 20.2224C0 21.6953 0.835685 23.0002 2.50705 23.0002Z" fill="url(#paint1_linear_3751_19783)"/>
<ellipse cx="75.627" cy="10.5" rx="6.26764" ry="7.5" fill="#F83D1E"/>
<path d="M14.8736 14V6.72727H17.6577C18.1832 6.72727 18.62 6.81013 18.968 6.97585C19.3184 7.1392 19.58 7.36293 19.7528 7.64702C19.928 7.93111 20.0156 8.25308 20.0156 8.61293C20.0156 8.90885 19.9588 9.16217 19.8452 9.37287C19.7315 9.5812 19.5788 9.75047 19.3871 9.88068C19.1953 10.0109 18.9811 10.1044 18.7443 10.1612V10.2322C19.0024 10.2464 19.2498 10.3258 19.4865 10.4702C19.7256 10.6122 19.9209 10.8134 20.0724 11.0739C20.224 11.3343 20.2997 11.6491 20.2997 12.0185C20.2997 12.3949 20.2086 12.7334 20.0263 13.0341C19.844 13.3324 19.5694 13.5679 19.2024 13.7408C18.8355 13.9136 18.3738 14 17.8175 14H14.8736ZM16.1911 12.8991H17.608C18.0862 12.8991 18.4306 12.808 18.6413 12.6257C18.8544 12.4411 18.9609 12.2043 18.9609 11.9155C18.9609 11.7 18.9077 11.5059 18.8011 11.3331C18.6946 11.1579 18.5431 11.0206 18.3466 10.9212C18.1501 10.8194 17.9157 10.7685 17.6435 10.7685H16.1911V12.8991ZM16.1911 9.82031H17.4943C17.7216 9.82031 17.9264 9.77888 18.1087 9.69602C18.291 9.6108 18.4342 9.49124 18.5384 9.33736C18.6449 9.18111 18.6982 8.99645 18.6982 8.78338C18.6982 8.50166 18.5987 8.26965 18.3999 8.08736C18.2034 7.90507 17.911 7.81392 17.5227 7.81392H16.1911V9.82031ZM23.8038 14.1065C23.2569 14.1065 22.7846 13.9929 22.3869 13.7656C21.9915 13.536 21.6873 13.2116 21.4743 12.7926C21.2612 12.3712 21.1547 11.8752 21.1547 11.3047C21.1547 10.7436 21.2612 10.2512 21.4743 9.82741C21.6897 9.40128 21.9904 9.06984 22.3762 8.8331C22.7621 8.59399 23.2155 8.47443 23.7363 8.47443C24.0725 8.47443 24.3897 8.52888 24.688 8.63778C24.9887 8.74432 25.2538 8.91004 25.4835 9.13494C25.7155 9.35985 25.8978 9.64631 26.0304 9.99432C26.1629 10.34 26.2292 10.7519 26.2292 11.2301V11.6243H21.7583V10.7578H24.997C24.9946 10.5116 24.9413 10.2926 24.8372 10.1009C24.733 9.90672 24.5874 9.75402 24.4004 9.64276C24.2157 9.53149 24.0003 9.47585 23.7541 9.47585C23.4913 9.47585 23.2605 9.53977 23.0616 9.66761C22.8627 9.79309 22.7077 9.95881 22.5964 10.1648C22.4875 10.3684 22.4319 10.5921 22.4295 10.8359V11.5923C22.4295 11.9096 22.4875 12.1818 22.6035 12.4091C22.7195 12.634 22.8817 12.8068 23.09 12.9276C23.2984 13.0459 23.5422 13.1051 23.8216 13.1051C24.0086 13.1051 24.1779 13.0791 24.3294 13.027C24.4809 12.9725 24.6123 12.8932 24.7235 12.7891C24.8348 12.6849 24.9189 12.5559 24.9757 12.402L26.176 12.5369C26.1002 12.8542 25.9558 13.1312 25.7427 13.3679C25.532 13.6023 25.2621 13.7846 24.9331 13.9148C24.604 14.0426 24.2276 14.1065 23.8038 14.1065ZM31.6278 9.98722L30.456 10.1151C30.4228 9.99669 30.3648 9.88542 30.282 9.78125C30.2015 9.67708 30.0926 9.59304 29.9553 9.52912C29.8179 9.4652 29.6499 9.43324 29.451 9.43324C29.1835 9.43324 28.9586 9.49124 28.7763 9.60724C28.5964 9.72325 28.5076 9.87358 28.5099 10.0582C28.5076 10.2169 28.5656 10.3459 28.6839 10.4453C28.8047 10.5447 29.0036 10.6264 29.2805 10.6903L30.2109 10.8892C30.727 11.0005 31.1106 11.1768 31.3615 11.4183C31.6148 11.6598 31.7427 11.9759 31.745 12.3665C31.7427 12.7098 31.642 13.0128 31.4432 13.2756C31.2467 13.536 30.9732 13.7396 30.6229 13.8864C30.2725 14.0331 29.87 14.1065 29.4155 14.1065C28.7479 14.1065 28.2105 13.9669 27.8033 13.6875C27.3961 13.4058 27.1534 13.014 27.0753 12.5121L28.3288 12.3913C28.3857 12.6375 28.5064 12.8234 28.6911 12.9489C28.8757 13.0743 29.116 13.1371 29.4119 13.1371C29.7173 13.1371 29.9624 13.0743 30.147 12.9489C30.334 12.8234 30.4276 12.6683 30.4276 12.4837C30.4276 12.3274 30.3672 12.1984 30.2464 12.0966C30.1281 11.9948 29.9434 11.9167 29.6925 11.8622L28.7621 11.6669C28.2389 11.558 27.8518 11.3745 27.6009 11.1165C27.3499 10.8561 27.2256 10.527 27.228 10.1293C27.2256 9.79309 27.3168 9.50189 27.5014 9.25568C27.6884 9.0071 27.9477 8.81534 28.2791 8.6804C28.6129 8.54309 28.9976 8.47443 29.4332 8.47443C30.0724 8.47443 30.5755 8.61056 30.9425 8.88281C31.3118 9.15507 31.5402 9.5232 31.6278 9.98722ZM35.5288 8.54545V9.53977H32.3931V8.54545H35.5288ZM33.1673 7.23864H34.4528V12.3594C34.4528 12.5322 34.4788 12.6648 34.5309 12.7571C34.5853 12.8471 34.6564 12.9086 34.744 12.9418C34.8316 12.9749 34.9286 12.9915 35.0352 12.9915C35.1156 12.9915 35.189 12.9856 35.2553 12.9737C35.324 12.9619 35.3761 12.9512 35.4116 12.9418L35.6282 13.9467C35.5595 13.9704 35.4613 13.9964 35.3335 14.0249C35.208 14.0533 35.0541 14.0698 34.8718 14.0746C34.5498 14.084 34.2598 14.0355 34.0018 13.929C33.7437 13.8201 33.5389 13.652 33.3874 13.4247C33.2383 13.1974 33.1649 12.9134 33.1673 12.5724V7.23864ZM43.0936 8.72656C43.0604 8.41643 42.9208 8.17495 42.6745 8.00213C42.4307 7.82931 42.1135 7.7429 41.7228 7.7429C41.4482 7.7429 41.2127 7.78433 41.0162 7.86719C40.8197 7.95005 40.6693 8.0625 40.5652 8.20455C40.461 8.34659 40.4077 8.50876 40.4054 8.69105C40.4054 8.84257 40.4397 8.97396 40.5083 9.08523C40.5794 9.1965 40.6752 9.29119 40.796 9.36932C40.9167 9.44508 41.0505 9.509 41.1973 9.56108C41.344 9.61316 41.492 9.65696 41.6412 9.69247L42.323 9.86293C42.5976 9.92685 42.8616 10.0133 43.1149 10.1222C43.3706 10.2311 43.599 10.3684 43.8002 10.5341C44.0038 10.6998 44.1648 10.8999 44.2832 11.1342C44.4016 11.3686 44.4608 11.6432 44.4608 11.9581C44.4608 12.3842 44.3519 12.7595 44.1341 13.0838C43.9163 13.4058 43.6014 13.6579 43.1895 13.8402C42.7799 14.0201 42.2839 14.1101 41.7015 14.1101C41.1357 14.1101 40.6445 14.0225 40.2278 13.8473C39.8135 13.6721 39.4892 13.4164 39.2548 13.0803C39.0228 12.7441 38.8973 12.3345 38.8784 11.8516H40.1745C40.1935 12.1049 40.2716 12.3156 40.4089 12.4837C40.5462 12.6518 40.725 12.7772 40.9451 12.8601C41.1677 12.9429 41.4163 12.9844 41.6909 12.9844C41.9773 12.9844 42.2283 12.9418 42.4437 12.8565C42.6615 12.7689 42.832 12.6482 42.9551 12.4943C43.0782 12.3381 43.1409 12.1558 43.1433 11.9474C43.1409 11.758 43.0853 11.6018 42.9764 11.4787C42.8675 11.3532 42.7148 11.2491 42.5183 11.1662C42.3242 11.081 42.0969 11.0052 41.8365 10.9389L41.0091 10.7259C40.4101 10.572 39.9366 10.3388 39.5886 10.0263C39.243 9.71141 39.0701 9.29356 39.0701 8.77273C39.0701 8.34422 39.1861 7.96899 39.4181 7.64702C39.6525 7.32505 39.9709 7.07528 40.3734 6.89773C40.7759 6.7178 41.2316 6.62784 41.7406 6.62784C42.2567 6.62784 42.7089 6.7178 43.0971 6.89773C43.4877 7.07528 43.7943 7.32268 44.0169 7.63991C44.2394 7.95478 44.3542 8.317 44.3613 8.72656H43.0936ZM47.9933 14.1065C47.4464 14.1065 46.9741 13.9929 46.5763 13.7656C46.181 13.536 45.8768 13.2116 45.6637 12.7926C45.4506 12.3712 45.3441 11.8752 45.3441 11.3047C45.3441 10.7436 45.4506 10.2512 45.6637 9.82741C45.8791 9.40128 46.1798 9.06984 46.5657 8.8331C46.9516 8.59399 47.4049 8.47443 47.9258 8.47443C48.262 8.47443 48.5792 8.52888 48.8775 8.63778C49.1781 8.74432 49.4433 8.91004 49.6729 9.13494C49.9049 9.35985 50.0872 9.64631 50.2198 9.99432C50.3524 10.34 50.4187 10.7519 50.4187 11.2301V11.6243H45.9478V10.7578H49.1864C49.1841 10.5116 49.1308 10.2926 49.0266 10.1009C48.9225 9.90672 48.7769 9.75402 48.5898 9.64276C48.4052 9.53149 48.1897 9.47585 47.9435 9.47585C47.6808 9.47585 47.4499 9.53977 47.2511 9.66761C47.0522 9.79309 46.8971 9.95881 46.7859 10.1648C46.677 10.3684 46.6213 10.5921 46.619 10.8359V11.5923C46.619 11.9096 46.677 12.1818 46.793 12.4091C46.909 12.634 47.0711 12.8068 47.2795 12.9276C47.4878 13.0459 47.7317 13.1051 48.011 13.1051C48.198 13.1051 48.3673 13.0791 48.5188 13.027C48.6703 12.9725 48.8017 12.8932 48.913 12.7891C49.0243 12.6849 49.1083 12.5559 49.1651 12.402L50.3654 12.5369C50.2897 12.8542 50.1452 13.1312 49.9322 13.3679C49.7215 13.6023 49.4516 13.7846 49.1225 13.9148C48.7934 14.0426 48.417 14.1065 47.9933 14.1065ZM51.5062 14V8.54545H52.7527V9.45455H52.8095C52.9089 9.13968 53.0794 8.89702 53.3208 8.72656C53.5647 8.55374 53.8429 8.46733 54.1554 8.46733C54.2264 8.46733 54.3057 8.47088 54.3933 8.47798C54.4833 8.48272 54.5578 8.491 54.617 8.50284V9.68537C54.5626 9.66643 54.4761 9.64986 54.3578 9.63565C54.2418 9.61908 54.1293 9.6108 54.0204 9.6108C53.786 9.6108 53.5753 9.66169 53.3883 9.76349C53.2037 9.86293 53.0581 10.0014 52.9515 10.179C52.845 10.3565 52.7917 10.5613 52.7917 10.7933V14H51.5062ZM60.5092 8.54545L58.5668 14H57.1463L55.2038 8.54545H56.5746L57.8281 12.5973H57.8849L59.142 8.54545H60.5092ZM61.3988 14V8.54545H62.6843V14H61.3988ZM62.0451 7.77131C61.8415 7.77131 61.6663 7.70384 61.5195 7.56889C61.3728 7.43158 61.2994 7.26705 61.2994 7.07528C61.2994 6.88116 61.3728 6.71662 61.5195 6.58168C61.6663 6.44437 61.8415 6.37571 62.0451 6.37571C62.2511 6.37571 62.4263 6.44437 62.5707 6.58168C62.7174 6.71662 62.7908 6.88116 62.7908 7.07528C62.7908 7.26705 62.7174 7.43158 62.5707 7.56889C62.4263 7.70384 62.2511 7.77131 62.0451 7.77131ZM66.3855 14.1065C65.841 14.1065 65.3734 13.987 64.9828 13.7479C64.5945 13.5088 64.295 13.1785 64.0843 12.7571C63.876 12.3333 63.7718 11.8456 63.7718 11.294C63.7718 10.7401 63.8784 10.2512 64.0914 9.82741C64.3045 9.40128 64.6052 9.06984 64.9934 8.8331C65.3841 8.59399 65.8457 8.47443 66.3784 8.47443C66.8211 8.47443 67.2129 8.55611 67.5538 8.71946C67.8971 8.88045 68.1705 9.1089 68.3741 9.40483C68.5777 9.69839 68.6937 10.0417 68.7221 10.4347H67.4934C67.4437 10.1719 67.3253 9.95289 67.1383 9.7777C66.9537 9.60014 66.7063 9.51136 66.3961 9.51136C66.1333 9.51136 65.9025 9.58239 65.7037 9.72443C65.5048 9.86411 65.3497 10.0653 65.2385 10.3281C65.1296 10.5909 65.0751 10.9058 65.0751 11.2727C65.0751 11.6444 65.1296 11.964 65.2385 12.2315C65.3474 12.4967 65.5001 12.7015 65.6966 12.8459C65.8954 12.9879 66.1286 13.0589 66.3961 13.0589C66.5855 13.0589 66.7548 13.0234 66.9039 12.9524C67.0555 12.879 67.1821 12.7737 67.2839 12.6364C67.3857 12.4991 67.4556 12.3321 67.4934 12.1357H68.7221C68.6913 12.5215 68.5777 12.8636 68.3812 13.1619C68.1847 13.4579 67.9172 13.6899 67.5787 13.858C67.2401 14.0237 66.8424 14.1065 66.3855 14.1065ZM72.1925 14.1065C71.6456 14.1065 71.1733 13.9929 70.7756 13.7656C70.3802 13.536 70.076 13.2116 69.8629 12.7926C69.6499 12.3712 69.5433 11.8752 69.5433 11.3047C69.5433 10.7436 69.6499 10.2512 69.8629 9.82741C70.0784 9.40128 70.379 9.06984 70.7649 8.8331C71.1508 8.59399 71.6042 8.47443 72.125 8.47443C72.4612 8.47443 72.7784 8.52888 73.0767 8.63778C73.3774 8.74432 73.6425 8.91004 73.8722 9.13494C74.1042 9.35985 74.2865 9.64631 74.419 9.99432C74.5516 10.34 74.6179 10.7519 74.6179 11.2301V11.6243H70.147V10.7578H73.3857C73.3833 10.5116 73.33 10.2926 73.2259 10.1009C73.1217 9.90672 72.9761 9.75402 72.7891 9.64276C72.6044 9.53149 72.389 9.47585 72.1428 9.47585C71.88 9.47585 71.6491 9.53977 71.4503 9.66761C71.2514 9.79309 71.0964 9.95881 70.9851 10.1648C70.8762 10.3684 70.8205 10.5921 70.8182 10.8359V11.5923C70.8182 11.9096 70.8762 12.1818 70.9922 12.4091C71.1082 12.634 71.2704 12.8068 71.4787 12.9276C71.687 13.0459 71.9309 13.1051 72.2102 13.1051C72.3973 13.1051 72.5665 13.0791 72.718 13.027C72.8696 12.9725 73.0009 12.8932 73.1122 12.7891C73.2235 12.6849 73.3075 12.5559 73.3643 12.402L74.5646 12.5369C74.4889 12.8542 74.3445 13.1312 74.1314 13.3679C73.9207 13.6023 73.6508 13.7846 73.3217 13.9148C72.9927 14.0426 72.6162 14.1065 72.1925 14.1065Z" fill="white"/>
<defs>
<linearGradient id="paint0_linear_3751_19783" x1="-0.293867" y1="12.2991" x2="69.9409" y2="12.5313" gradientUnits="userSpaceOnUse">
<stop stop-color="#FF9889"/>
<stop offset="0.027952" stop-color="#FF8088"/>
<stop offset="0.0551588" stop-color="#FF868E"/>
<stop offset="1" stop-color="#FF2A08"/>
</linearGradient>
<linearGradient id="paint1_linear_3751_19783" x1="1.25353" y1="17.4444" x2="1.25353" y2="23.0543" gradientUnits="userSpaceOnUse">
<stop stop-color="#AA0800"/>
<stop offset="1" stop-color="#5C0905"/>
</linearGradient>
</defs>
</svg>
