<svg width="64" height="16" viewBox="0 0 64 16" fill="none" xmlns="http://www.w3.org/2000/svg">
<path fill-rule="evenodd" clip-rule="evenodd" d="M63.9971 15.96H60.6221L59.7793 15.0732L57.9717 13.1738L55.4404 10.5137H58.8154L63.9971 15.96ZM2.77246 7.09277L9.52148 0H12.7754L5.54492 7.59961L13.1367 15.959H9.7627L2.77246 8.48633V15.959H0V0H2.77246V7.09277ZM18.0801 6.71289H25.793V0H28.4443V15.959H25.793V8.99219H18.0801V15.959H15.3086V0H18.0801V6.71289ZM56.4072 0C60.625 0 64 3.5465 64 7.97949H61.5898C61.5898 4.93971 59.2995 2.5332 56.4072 2.5332C54.1175 2.53334 52.1896 4.05327 51.4658 6.33301C51.346 6.8396 51.2256 7.47296 51.2256 7.97949V15.959H51.1045C49.7791 15.9588 48.8154 14.8183 48.8154 13.5518V7.97949C48.8154 5.82639 49.6589 3.67321 51.2256 2.15332C52.6716 0.760186 54.4794 8.04551e-05 56.4072 0ZM44.1143 0C45.3191 0 46.4043 1.01299 46.4043 2.40625V14.3125L43.9941 11.7793V4.17969C43.9941 3.29306 43.2705 2.5332 42.4268 2.5332H35.1963C34.3527 2.5333 33.6299 3.29312 33.6299 4.17969V11.7793C33.6301 12.6657 34.3528 13.4257 35.1963 13.4258H42.4268L44.8379 15.832H33.6299C32.4244 15.832 31.34 14.8188 31.3398 13.4258V2.40625C31.3399 1.13967 32.3037 0 33.6299 0H44.1143Z" fill="white"/>
</svg>
