<svg width="8" height="5" viewBox="0 0 8 5" fill="none" xmlns="http://www.w3.org/2000/svg">
<path fill-rule="evenodd" clip-rule="evenodd" d="M4.73861 4.69683C4.5427 4.89095 4.27702 5 4 5C3.72298 5 3.4573 4.89095 3.26139 4.69683L0.30588 1.76752C0.159755 1.62265 0.0602704 1.43808 0.0200115 1.23715C-0.0202474 1.03622 0.000528657 0.827976 0.079712 0.638756C0.158895 0.449536 0.292927 0.287847 0.464849 0.174145C0.636771 0.0604432 0.838857 -0.000160848 1.04554 3.2062e-07H6.95446C7.16114 -0.000160848 7.36323 0.0604432 7.53515 0.174145C7.70707 0.287847 7.8411 0.449536 7.92029 0.638756C7.99947 0.827976 8.02025 1.03622 7.97999 1.23715C7.93973 1.43808 7.84024 1.62265 7.69412 1.76752L4.73861 4.69683Z" fill="#A8071A"/>
</svg>
