<svg width="8" height="5" viewBox="0 0 8 5" fill="none" xmlns="http://www.w3.org/2000/svg">
<path fill-rule="evenodd" clip-rule="evenodd" d="M4.73861 0.303168C4.5427 0.10905 4.27702 0 4 0C3.72298 0 3.4573 0.10905 3.26139 0.303168L0.30588 3.23248C0.159755 3.37735 0.0602704 3.56192 0.0200115 3.76285C-0.0202474 3.96378 0.000528657 4.17202 0.079712 4.36124C0.158895 4.55046 0.292927 4.71215 0.464849 4.82586C0.636771 4.93956 0.838857 5.00016 1.04554 5H6.95446C7.16114 5.00016 7.36323 4.93956 7.53515 4.82586C7.70707 4.71215 7.8411 4.55046 7.92029 4.36124C7.99947 4.17202 8.02025 3.96378 7.97999 3.76285C7.93973 3.56192 7.84024 3.37735 7.69412 3.23248L4.73861 0.303168Z" fill="#A8071A"/>
</svg>
