<svg viewBox="0 0 20 20" fill="none" xmlns="http://www.w3.org/2000/svg">
<path d="M14.7917 17.6327L12.5 15.1327L13.4667 14.166L14.7917 15.491L17.7833 12.4993L18.75 13.6743L14.7917 17.6327ZM2.5 16.666V15.8327L4.16667 14.166V9.16602C4.16634 7.90954 4.57172 6.68655 5.32248 5.67903C6.07324 4.67152 7.12924 3.93334 8.33333 3.57435V3.33268C8.33333 2.89065 8.50893 2.46673 8.82149 2.15417C9.13405 1.84161 9.55797 1.66602 10 1.66602C10.442 1.66602 10.866 1.84161 11.1785 2.15417C11.4911 2.46673 11.6667 2.89065 11.6667 3.33268V3.57435C12.8708 3.93334 13.9268 4.67152 14.6775 5.67903C15.4283 6.68655 15.8337 7.90954 15.8333 9.16602V10.066L15 9.99935C14.2002 9.99987 13.4122 10.1921 12.702 10.5599C11.9918 10.9277 11.3801 11.4604 10.9181 12.1133C10.4562 12.7662 10.1575 13.5203 10.047 14.3124C9.9366 15.1046 10.0176 15.9116 10.2833 16.666H2.5ZM10 19.166C9.55797 19.166 9.13405 18.9904 8.82149 18.6779C8.50893 18.3653 8.33333 17.9414 8.33333 17.4993H10.6667C10.8667 17.841 11.1083 18.1577 11.375 18.441C11.075 18.8827 10.575 19.166 10 19.166Z" fill="currentColor"/>
</svg>
