<svg viewBox="0 0 20 20" fill="none" xmlns="http://www.w3.org/2000/svg">
<path fill-rule="evenodd" clip-rule="evenodd" d="M15 11.6667C15.221 11.6667 15.433 11.7545 15.5893 11.9107C15.7455 12.067 15.8333 12.279 15.8333 12.5V14.1667H17.5C17.721 14.1667 17.933 14.2545 18.0893 14.4107C18.2455 14.567 18.3333 14.779 18.3333 15C18.3333 15.221 18.2455 15.433 18.0893 15.5893C17.933 15.7455 17.721 15.8333 17.5 15.8333H15.8333V17.5C15.8333 17.721 15.7455 17.933 15.5893 18.0893C15.433 18.2455 15.221 18.3333 15 18.3333C14.779 18.3333 14.567 18.2455 14.4107 18.0893C14.2545 17.933 14.1667 17.721 14.1667 17.5V15.8333H12.5C12.279 15.8333 12.067 15.7455 11.9107 15.5893C11.7545 15.433 11.6667 15.221 11.6667 15C11.6667 14.779 11.7545 14.567 11.9107 14.4107C12.067 14.2545 12.279 14.1667 12.5 14.1667H14.1667V12.5C14.1667 12.279 14.2545 12.067 14.4107 11.9107C14.567 11.7545 14.779 11.6667 15 11.6667ZM13.3333 2.5C13.5543 2.5 13.7663 2.5878 13.9226 2.74408C14.0789 2.90036 14.1667 3.11232 14.1667 3.33333V4.16667H15.8333C16.2754 4.16667 16.6993 4.34226 17.0118 4.65482C17.3244 4.96738 17.5 5.39131 17.5 5.83333V9.16667C17.5 9.38768 17.4122 9.59964 17.2559 9.75592C17.0996 9.9122 16.8877 10 16.6667 10H4.16667V15.8333H9.16667C9.38768 15.8333 9.59964 15.9211 9.75592 16.0774C9.9122 16.2337 10 16.4457 10 16.6667C10 16.8877 9.9122 17.0996 9.75592 17.2559C9.59964 17.4122 9.38768 17.5 9.16667 17.5H4.16667C3.72464 17.5 3.30072 17.3244 2.98816 17.0118C2.67559 16.6993 2.5 16.2754 2.5 15.8333V5.83333C2.5 5.39131 2.67559 4.96738 2.98816 4.65482C3.30072 4.34226 3.72464 4.16667 4.16667 4.16667H5.83333V3.33333C5.83333 3.11232 5.92113 2.90036 6.07741 2.74408C6.23369 2.5878 6.44565 2.5 6.66667 2.5C6.88768 2.5 7.09964 2.5878 7.25592 2.74408C7.4122 2.90036 7.5 3.11232 7.5 3.33333V4.16667H12.5V3.33333C12.5 3.11232 12.5878 2.90036 12.7441 2.74408C12.9004 2.5878 13.1123 2.5 13.3333 2.5ZM15.8333 5.83333H4.16667V8.33333H15.8333V5.83333Z" fill="currentColor"/>
</svg>
