<svg width="154" height="104" viewBox="0 0 154 104" fill="none" xmlns="http://www.w3.org/2000/svg">
<path opacity="0.4" d="M145.8 49.0038C146.217 49.4079 146.88 49.4079 147.298 49.0038C147.595 48.7169 148.029 48.6246 148.417 48.766C148.963 48.9653 149.568 48.6956 149.786 48.1565C149.94 47.7738 150.299 47.5128 150.711 47.4843C151.291 47.4442 151.734 46.9516 151.714 46.3707C151.699 45.9583 151.921 45.5737 152.285 45.3803C152.799 45.1078 153.004 44.4773 152.749 43.9551C152.567 43.5844 152.614 43.1427 152.868 42.8177C153.226 42.36 153.157 41.7007 152.711 41.3274C152.395 41.0624 152.258 40.6401 152.358 40.2397C152.499 39.6759 152.168 39.1018 151.609 38.942C151.212 38.8286 150.915 38.4985 150.844 38.0921C150.743 37.5196 150.207 37.1299 149.631 37.2113C149.223 37.269 148.817 37.0884 148.586 36.7461C148.262 36.264 147.613 36.1262 147.121 36.4346C146.771 36.6535 146.327 36.6535 145.977 36.4346C145.484 36.1262 144.836 36.264 144.511 36.7461C144.281 37.0884 143.875 37.269 143.466 37.2113C142.891 37.1299 142.355 37.5196 142.254 38.0921C142.183 38.4985 141.886 38.8286 141.489 38.942C140.93 39.1018 140.599 39.6759 140.74 40.2397C140.84 40.6401 140.703 41.0624 140.386 41.3274C139.941 41.7007 139.871 42.36 140.23 42.8177C140.484 43.1427 140.53 43.5844 140.349 43.9551C140.094 44.4773 140.299 45.1078 140.812 45.3803C141.177 45.5737 141.399 45.9583 141.384 46.3707C141.363 46.9516 141.807 47.4442 142.387 47.4843C142.798 47.5128 143.158 47.7738 143.312 48.1565C143.529 48.6956 144.135 48.9653 144.681 48.766C145.069 48.6246 145.503 48.7169 145.8 49.0038Z" fill="#E22A36"/>
<path opacity="0.4" d="M5.79957 24.0038C6.21735 24.4079 6.8803 24.4079 7.29808 24.0038C7.5947 23.7169 8.02909 23.6246 8.41674 23.766C8.96276 23.9653 9.5684 23.6956 9.7857 23.1565C9.93998 22.7738 10.2993 22.5128 10.7109 22.4843C11.2908 22.4442 11.7344 21.9516 11.7136 21.3707C11.6989 20.9583 11.921 20.5737 12.2855 20.3803C12.7989 20.1078 13.0037 19.4773 12.7485 18.9551C12.5673 18.5844 12.6138 18.1427 12.8681 17.8177C13.2263 17.36 13.157 16.7007 12.7114 16.3274C12.3951 16.0624 12.2579 15.6401 12.358 15.2397C12.4991 14.6759 12.1676 14.1018 11.6088 13.942C11.212 13.8286 10.9149 13.4985 10.8435 13.0921C10.743 12.5196 10.2067 12.1299 9.6312 12.2113C9.2226 12.269 8.8169 12.0884 8.58642 11.7461C8.26178 11.264 7.61332 11.1262 7.12065 11.4346C6.77088 11.6535 6.32678 11.6535 5.977 11.4346C5.48434 11.1262 4.83587 11.264 4.51124 11.7461C4.28076 12.0884 3.87505 12.269 3.46646 12.2113C2.89095 12.1299 2.35461 12.5196 2.25414 13.0921C2.1828 13.4985 1.88565 13.8286 1.48889 13.942C0.930047 14.1018 0.598571 14.6759 0.739631 15.2397C0.83978 15.6401 0.702547 16.0624 0.386223 16.3274C-0.0593199 16.7007 -0.128617 17.36 0.229586 17.8177C0.483901 18.1427 0.530322 18.5844 0.34913 18.9551C0.0939215 19.4773 0.298785 20.1078 0.812196 20.3803C1.1767 20.5737 1.39875 20.9583 1.38402 21.3707C1.36327 21.9516 1.80688 22.4442 2.38672 22.4843C2.79839 22.5128 3.15768 22.7738 3.31195 23.1565C3.52926 23.6956 4.1349 23.9653 4.68091 23.766C5.06857 23.6246 5.50296 23.7169 5.79957 24.0038Z" fill="#E22A36"/>
<path d="M82.1787 20.4391C84.8942 17.8125 89.2034 17.8125 91.919 20.4391C93.847 22.3039 96.6705 22.904 99.1903 21.9846C102.739 20.6897 106.676 22.4424 108.089 25.9464C109.091 28.4341 111.427 30.1308 114.103 30.3158C117.872 30.5764 120.755 33.7787 120.62 37.5543C120.524 40.2348 121.968 42.7347 124.337 43.9921C127.674 45.7631 129.006 49.8614 127.347 53.2557C126.169 55.6656 126.471 58.5364 128.124 60.6487C130.452 63.6239 130.002 67.9095 127.106 70.3357C125.05 72.0581 124.158 74.8035 124.809 77.4056C125.726 81.0706 123.571 84.8025 119.938 85.8409C117.36 86.5782 115.428 88.7234 114.964 91.3653C114.311 95.0864 110.825 97.6192 107.084 97.0905C104.428 96.7151 101.791 97.8892 100.293 100.114C98.183 103.248 93.968 104.144 90.7657 102.139C88.4921 100.716 85.6055 100.716 83.332 102.139C80.1296 104.144 75.9146 103.248 73.8045 100.114C72.3064 97.8892 69.6693 96.7151 67.0134 97.0905C63.2726 97.6192 59.7864 95.0864 59.1333 91.3653C58.6697 88.7234 56.7382 86.5782 54.1592 85.8409C50.5268 84.8025 48.3722 81.0706 49.289 77.4056C49.94 74.8035 49.048 72.0581 46.9919 70.3357C44.0959 67.9095 43.6454 63.6239 45.9738 60.6487C47.6268 58.5364 47.9285 55.6656 46.7508 53.2557C45.0919 49.8614 46.4236 45.7631 49.7607 43.9921C52.13 42.7347 53.5733 40.2348 53.4776 37.5543C53.3427 33.7787 56.2261 30.5764 59.9951 30.3158C62.671 30.1308 65.0063 28.4341 66.0091 25.9464C67.4216 22.4424 71.3583 20.6897 74.9074 21.9846C77.4272 22.904 80.2507 22.3039 82.1787 20.4391Z" fill="#E22A36"/>
<path d="M67.7102 60.6767L79.3556 74.5223C79.7111 74.9449 80.3419 74.9994 80.7645 74.6439L109.762 50.2542" stroke="white" stroke-width="4"/>
<path opacity="0.4" d="M92.6742 6.36617C92.8831 6.56821 93.2146 6.56821 93.4235 6.36617C93.5718 6.22272 93.789 6.17655 93.9828 6.24728C94.2558 6.34689 94.5586 6.21207 94.6673 5.94253C94.7444 5.75116 94.924 5.62065 95.1299 5.60642C95.4198 5.58637 95.6416 5.34004 95.6312 5.04961C95.6239 4.84341 95.7349 4.65112 95.9171 4.5544C96.1738 4.41816 96.2763 4.10291 96.1487 3.84181C96.0581 3.65644 96.0813 3.43561 96.2084 3.27312C96.3876 3.04425 96.3529 2.71459 96.1301 2.52797C95.972 2.39547 95.9034 2.18429 95.9534 1.98413C96.024 1.7022 95.8582 1.41514 95.5788 1.33525C95.3804 1.27854 95.2318 1.11353 95.1962 0.910305C95.1459 0.624065 94.8778 0.429228 94.59 0.469903C94.3857 0.498781 94.1829 0.408465 94.0676 0.23732C93.9053 -0.0037384 93.5811 -0.0726566 93.3347 0.0815415C93.1599 0.191018 92.9378 0.191018 92.7629 0.0815415C92.5166 -0.0726562 92.1924 -0.0037384 92.03 0.23732C91.9148 0.408466 91.7119 0.498781 91.5076 0.469903C91.2199 0.429228 90.9517 0.624065 90.9015 0.910305C90.8658 1.11353 90.7172 1.27854 90.5189 1.33525C90.2394 1.41514 90.0737 1.7022 90.1442 1.98413C90.1943 2.18429 90.1257 2.39547 89.9675 2.52797C89.7448 2.71459 89.7101 3.04425 89.8892 3.27312C90.0164 3.43561 90.0396 3.65644 89.949 3.84181C89.8214 4.10291 89.9238 4.41816 90.1805 4.5544C90.3628 4.65112 90.4738 4.84341 90.4664 5.04961C90.4561 5.34004 90.6779 5.58637 90.9678 5.60642C91.1736 5.62065 91.3533 5.75116 91.4304 5.94253C91.539 6.21207 91.8419 6.34689 92.1149 6.24728C92.3087 6.17655 92.5259 6.22272 92.6742 6.36617Z" fill="#E22A36"/>
<path opacity="0.4" d="M21.4601 101.159C21.7884 101.477 22.3093 101.477 22.6375 101.159C22.8706 100.934 23.2119 100.861 23.5165 100.972C23.9455 101.129 24.4213 100.917 24.5921 100.493C24.7133 100.193 24.9956 99.9876 25.3191 99.9652C25.7746 99.9337 26.1232 99.5466 26.1069 99.0902C26.0953 98.7662 26.2698 98.464 26.5562 98.312C26.9596 98.098 27.1205 97.6026 26.92 97.1923C26.7777 96.901 26.8141 96.5539 27.0139 96.2986C27.2954 95.939 27.2409 95.4209 26.8909 95.1277C26.6423 94.9194 26.5345 94.5876 26.6132 94.273C26.724 93.83 26.4636 93.3789 26.0245 93.2534C25.7128 93.1643 25.4793 92.905 25.4232 92.5856C25.3443 92.1358 24.9229 91.8296 24.4707 91.8936C24.1497 91.9389 23.8309 91.797 23.6498 91.5281C23.3947 91.1493 22.8852 91.041 22.4981 91.2833C22.2233 91.4553 21.8744 91.4553 21.5995 91.2833C21.2124 91.041 20.7029 91.1493 20.4479 91.5281C20.2668 91.797 19.948 91.9389 19.627 91.8936C19.1748 91.8296 18.7534 92.1358 18.6744 92.5856C18.6184 92.905 18.3849 93.1643 18.0732 93.2534C17.6341 93.3789 17.3736 93.83 17.4845 94.273C17.5631 94.5876 17.4553 94.9194 17.2068 95.1277C16.8567 95.4209 16.8023 95.939 17.0837 96.2986C17.2835 96.5539 17.32 96.901 17.1776 97.1923C16.9771 97.6026 17.1381 98.098 17.5415 98.312C17.8279 98.464 18.0023 98.7662 17.9908 99.0902C17.9745 99.5466 18.323 99.9337 18.7786 99.9652C19.1021 99.9876 19.3844 100.193 19.5056 100.493C19.6763 100.917 20.1522 101.129 20.5812 100.972C20.8858 100.861 21.2271 100.934 21.4601 101.159Z" fill="#E22A36"/>
<path opacity="0.4" d="M16.6742 56.3662C16.8831 56.5682 17.2146 56.5682 17.4235 56.3662C17.5718 56.2227 17.789 56.1766 17.9828 56.2473C18.2558 56.3469 18.5586 56.2121 18.6673 55.9425C18.7444 55.7512 18.924 55.6206 19.1299 55.6064C19.4198 55.5864 19.6416 55.34 19.6312 55.0496C19.6239 54.8434 19.7349 54.6511 19.9171 54.5544C20.1738 54.4182 20.2763 54.1029 20.1487 53.8418C20.0581 53.6564 20.0813 53.4356 20.2084 53.2731C20.3876 53.0443 20.3529 52.7146 20.1301 52.528C19.972 52.3955 19.9034 52.1843 19.9534 51.9841C20.024 51.7022 19.8582 51.4151 19.5788 51.3353C19.3804 51.2785 19.2318 51.1135 19.1962 50.9103C19.1459 50.6241 18.8778 50.4292 18.59 50.4699C18.3857 50.4988 18.1829 50.4085 18.0676 50.2373C17.9053 49.9963 17.5811 49.9273 17.3347 50.0815C17.1599 50.191 16.9378 50.191 16.7629 50.0815C16.5166 49.9273 16.1924 49.9963 16.03 50.2373C15.9148 50.4085 15.7119 50.4988 15.5076 50.4699C15.2199 50.4292 14.9517 50.6241 14.9015 50.9103C14.8658 51.1135 14.7172 51.2785 14.5189 51.3353C14.2394 51.4151 14.0737 51.7022 14.1442 51.9841C14.1943 52.1843 14.1257 52.3955 13.9675 52.528C13.7448 52.7146 13.7101 53.0443 13.8892 53.2731C14.0164 53.4356 14.0396 53.6564 13.949 53.8418C13.8214 54.1029 13.9238 54.4182 14.1805 54.5544C14.3628 54.6511 14.4738 54.8434 14.4664 55.0496C14.4561 55.34 14.6779 55.5864 14.9678 55.6064C15.1736 55.6206 15.3533 55.7512 15.4304 55.9425C15.539 56.2121 15.8419 56.3469 16.1149 56.2473C16.3087 56.1766 16.5259 56.2227 16.6742 56.3662Z" fill="#E22A36"/>
<path opacity="0.4" d="M126.674 99.3662C126.883 99.5682 127.215 99.5682 127.423 99.3662C127.572 99.2227 127.789 99.1766 127.983 99.2473C128.256 99.3469 128.559 99.2121 128.667 98.9425C128.744 98.7512 128.924 98.6206 129.13 98.6064C129.42 98.5864 129.642 98.34 129.631 98.0496C129.624 97.8434 129.735 97.6511 129.917 97.5544C130.174 97.4182 130.276 97.1029 130.149 96.8418C130.058 96.6564 130.081 96.4356 130.208 96.2731C130.388 96.0443 130.353 95.7146 130.13 95.528C129.972 95.3955 129.903 95.1843 129.953 94.9841C130.024 94.7022 129.858 94.4151 129.579 94.3353C129.38 94.2785 129.232 94.1135 129.196 93.9103C129.146 93.6241 128.878 93.4292 128.59 93.4699C128.386 93.4988 128.183 93.4085 128.068 93.2373C127.905 92.9963 127.581 92.9273 127.335 93.0815C127.16 93.191 126.938 93.191 126.763 93.0815C126.517 92.9273 126.192 92.9963 126.03 93.2373C125.915 93.4085 125.712 93.4988 125.508 93.4699C125.22 93.4292 124.952 93.6241 124.901 93.9103C124.866 94.1135 124.717 94.2785 124.519 94.3353C124.239 94.4151 124.074 94.7022 124.144 94.9841C124.194 95.1843 124.126 95.3955 123.968 95.528C123.745 95.7146 123.71 96.0443 123.889 96.2731C124.016 96.4356 124.04 96.6564 123.949 96.8418C123.821 97.1029 123.924 97.4182 124.181 97.5544C124.363 97.6511 124.474 97.8434 124.466 98.0496C124.456 98.34 124.678 98.5864 124.968 98.6064C125.174 98.6206 125.353 98.7512 125.43 98.9425C125.539 99.2121 125.842 99.3469 126.115 99.2473C126.309 99.1766 126.526 99.2227 126.674 99.3662Z" fill="#E22A36"/>
</svg>
