<svg viewBox="0 0 28 28" fill="none" xmlns="http://www.w3.org/2000/svg">
<path d="M17.5008 11.8996C17.5008 12.8279 17.132 13.7181 16.4757 14.3745C15.8193 15.0309 14.929 15.3996 14.0008 15.3996C13.0725 15.3996 12.1823 15.0309 11.5259 14.3745C10.8695 13.7181 10.5008 12.8279 10.5008 11.8996C10.5008 10.9714 10.8695 10.0811 11.5259 9.42474C12.1823 8.76836 13.0725 8.39961 14.0008 8.39961C14.929 8.39961 15.8193 8.76836 16.4757 9.42474C17.132 10.0811 17.5008 10.9714 17.5008 11.8996ZM2.80078 7.69961C2.80078 7.14265 3.02203 6.60851 3.41586 6.21468C3.80968 5.82086 4.34383 5.59961 4.90078 5.59961H23.1008C23.6577 5.59961 24.1919 5.82086 24.5857 6.21468C24.9795 6.60851 25.2008 7.14265 25.2008 7.69961V11.4586C24.7591 11.2699 24.2807 11.1823 23.8008 11.2024V7.69961C23.8008 7.51396 23.727 7.33591 23.5958 7.20463C23.4645 7.07336 23.2864 6.99961 23.1008 6.99961H4.90078C4.71513 6.99961 4.53708 7.07336 4.40581 7.20463C4.27453 7.33591 4.20078 7.51396 4.20078 7.69961V20.2996C4.20078 20.4853 4.27453 20.6633 4.40581 20.7946C4.53708 20.9259 4.71513 20.9996 4.90078 20.9996H8.40078V18.8996C8.40078 18.3427 8.62203 17.8085 9.01586 17.4147C9.40968 17.0209 9.94383 16.7996 10.5008 16.7996H17.5008C18.0577 16.7996 18.5919 17.0209 18.9857 17.4147C19.3795 17.8085 19.6008 18.3427 19.6008 18.8996V19.2076C19.1197 19.1262 18.6258 19.1675 18.165 19.3278C17.7042 19.4881 17.2913 19.7622 16.9646 20.1246L16.2016 20.9744C15.8382 21.3778 15.5863 21.8691 15.4708 22.3996H4.90078C4.34383 22.3996 3.80968 22.1784 3.41586 21.7845C3.02203 21.3907 2.80078 20.8566 2.80078 20.2996V7.69961ZM21.8184 14.8144L22.2146 13.7644C22.5758 12.811 23.7014 12.3406 24.6506 12.7452L25.1938 12.9776C25.856 13.2604 26.4034 13.7728 26.5196 14.4616C27.1594 18.2766 23.8484 23.703 20.0376 25.0876C19.3488 25.3368 18.6054 25.1436 18.0146 24.7432L17.5302 24.4142C17.3313 24.2803 17.1639 24.1047 17.0394 23.8998C16.9149 23.6948 16.8364 23.4653 16.8093 23.2271C16.7821 22.9889 16.807 22.7476 16.8821 22.5199C16.9573 22.2922 17.0809 22.0835 17.2446 21.9082L18.0076 21.0584C18.1868 20.861 18.4155 20.7151 18.6699 20.6356C18.9244 20.5561 19.1955 20.5459 19.4552 20.6062L21.1702 21.0122C22.53 20.1629 23.259 18.9682 23.357 17.4282L22.1278 16.2256C21.9442 16.0462 21.8171 15.817 21.7621 15.5663C21.7071 15.3155 21.7267 15.0542 21.8184 14.8144Z" fill="currentColor"/>
</svg>
