<svg viewBox="0 0 16 16" fill="none" xmlns="http://www.w3.org/2000/svg">
<path d="M13.6254 11.4031C13.1674 10.9416 12.0579 10.2681 11.5196 9.99663C10.8186 9.64356 10.761 9.61472 10.21 10.024C9.84247 10.2972 9.59814 10.5412 9.16803 10.4495C8.73793 10.3578 7.80329 9.84057 6.9849 9.02484C6.16652 8.20911 5.61929 7.24742 5.52727 6.81878C5.43525 6.39015 5.68333 6.14871 5.95392 5.78037C6.33527 5.26116 6.30642 5.17462 5.98045 4.47369C5.72631 3.92852 5.03312 2.82953 4.56984 2.37378C4.07425 1.88428 4.07425 1.97082 3.75492 2.1035C3.49493 2.21286 3.24552 2.34581 3.00981 2.5007C2.54826 2.80732 2.2921 3.06202 2.11296 3.44479C1.93382 3.82756 1.85333 4.72493 2.77845 6.40543C3.70357 8.08594 4.35263 8.94523 5.69602 10.2848C7.03942 11.6243 8.07243 12.3446 9.58256 13.1915C11.4507 14.2377 12.1672 14.0338 12.5512 13.8549C12.9351 13.6761 13.191 13.4222 13.4982 12.9607C13.6535 12.7254 13.7868 12.4763 13.8963 12.2165C14.0293 11.8984 14.1158 11.8984 13.6254 11.4031Z" stroke="currentColor" stroke-miterlimit="10"/>
</svg>
