<svg width="28" height="28" viewBox="0 0 28 28" fill="none" xmlns="http://www.w3.org/2000/svg">
<path d="M23.1306 9.62273L22.8287 10.3072C22.7815 10.4186 22.7019 10.5138 22.5999 10.5808C22.4979 10.6477 22.3781 10.6835 22.2555 10.6835C22.133 10.6835 22.0132 10.6477 21.9112 10.5808C21.8092 10.5138 21.7296 10.4186 21.6824 10.3072L21.3805 9.62273C20.8496 8.41195 19.8775 7.44117 18.6559 6.90194L17.7243 6.49201C17.6113 6.44079 17.5156 6.35871 17.4485 6.25551C17.3814 6.15232 17.3457 6.03232 17.3457 5.90976C17.3457 5.78719 17.3814 5.6672 17.4485 5.564C17.5156 5.4608 17.6113 5.37873 17.7243 5.32751L18.6043 4.94176C19.8567 4.38718 20.8454 3.38049 21.367 2.12906L21.6775 1.39022C21.7231 1.27577 21.8026 1.17751 21.9057 1.10825C22.0089 1.039 22.1308 1.00195 22.2555 1.00195C22.3803 1.00195 22.5022 1.039 22.6053 1.10825C22.7085 1.17751 22.788 1.27577 22.8336 1.39022L23.1441 2.12785C23.6651 3.37951 24.6534 4.38664 25.9056 4.94176L26.7868 5.32872C26.8994 5.38008 26.9948 5.46215 27.0617 5.56521C27.1285 5.66828 27.1641 5.78804 27.1641 5.91036C27.1641 6.03268 27.1285 6.15245 27.0617 6.25551C26.9948 6.35858 26.8994 6.44064 26.7868 6.49201L25.854 6.90073C24.6326 7.4405 23.6609 8.41171 23.1306 9.62273ZM9.9825 3.42174H14.8917V5.84023H9.9825C8.02949 5.84023 6.15647 6.60464 4.77549 7.9653C3.3945 9.32596 2.61867 11.1714 2.61867 13.0957C2.61867 17.461 5.6403 20.31 12.4371 23.35V20.3511H14.8917C16.8447 20.3511 18.7177 19.5867 20.0987 18.2261C21.4797 16.8654 22.2555 15.0199 22.2555 13.0957H24.7102C24.7102 15.6614 23.6757 18.122 21.8344 19.9362C19.9931 21.7504 17.4957 22.7696 14.8917 22.7696V27.002C8.7552 24.5835 0.164062 20.9557 0.164062 13.0957C0.164063 10.53 1.1985 8.06939 3.03982 6.25517C4.88113 4.44096 7.37849 3.42174 9.9825 3.42174Z" fill="#E22A36"/>
</svg>
