<svg viewBox="0 0 16 16" fill="none" xmlns="http://www.w3.org/2000/svg">
<path d="M7.9987 14.6673C8.87434 14.6684 9.74156 14.4965 10.5505 14.1614C11.3595 13.8263 12.0943 13.3346 12.7127 12.7147C13.3326 12.0963 13.8243 11.3615 14.1594 10.5525C14.4945 9.74351 14.6664 8.87629 14.6654 8.00066C14.6664 7.12502 14.4945 6.2578 14.1594 5.44882C13.8243 4.63984 13.3326 3.90505 12.7127 3.28666C12.0943 2.66671 11.3595 2.17506 10.5505 1.83996C9.74156 1.50486 8.87434 1.33291 7.9987 1.33399C7.12307 1.33291 6.25585 1.50486 5.44687 1.83996C4.63789 2.17506 3.90309 2.66671 3.2847 3.28666C2.66476 3.90505 2.17311 4.63984 1.83801 5.44882C1.50291 6.2578 1.33096 7.12502 1.33204 8.00066C1.33096 8.87629 1.50291 9.74351 1.83801 10.5525C2.17311 11.3615 2.66476 12.0963 3.2847 12.7147C3.90309 13.3346 4.63789 13.8263 5.44687 14.1614C6.25585 14.4965 7.12307 14.6684 7.9987 14.6673Z" stroke="currentColor" stroke-width="1.5" stroke-linejoin="round"/>
<path d="M5.33203 8L7.33203 10L11.332 6" stroke="currentColor" stroke-width="1.5" stroke-linecap="round" stroke-linejoin="round"/>
</svg>
