<svg viewBox="0 0 20 20" fill="none" xmlns="http://www.w3.org/2000/svg">
<path d="M8.83268 11.4993L7.04102 9.70768C6.88824 9.5549 6.69379 9.47851 6.45768 9.47851C6.22157 9.47851 6.02713 9.5549 5.87435 9.70768C5.72157 9.86046 5.64518 10.0549 5.64518 10.291C5.64518 10.5271 5.72157 10.7216 5.87435 10.8743L8.24935 13.2493C8.41602 13.416 8.61046 13.4993 8.83268 13.4993C9.05491 13.4993 9.24935 13.416 9.41602 13.2493L14.1244 8.54102C14.2771 8.38824 14.3535 8.19379 14.3535 7.95768C14.3535 7.72157 14.2771 7.52713 14.1244 7.37435C13.9716 7.22157 13.7771 7.14518 13.541 7.14518C13.3049 7.14518 13.1105 7.22157 12.9577 7.37435L8.83268 11.4993ZM9.99935 18.3327C8.84657 18.3327 7.76324 18.1138 6.74935 17.676C5.73546 17.2382 4.85352 16.6446 4.10352 15.8952C3.35352 15.1457 2.75991 14.2638 2.32268 13.2493C1.88546 12.2349 1.66657 11.1516 1.66602 9.99935C1.66546 8.84713 1.88435 7.76379 2.32268 6.74935C2.76102 5.7349 3.35463 4.85296 4.10352 4.10352C4.85241 3.35407 5.73435 2.76046 6.74935 2.32268C7.76435 1.8849 8.84768 1.66602 9.99935 1.66602C11.151 1.66602 12.2343 1.8849 13.2493 2.32268C14.2643 2.76046 15.1463 3.35407 15.8952 4.10352C16.6441 4.85296 17.238 5.7349 17.6768 6.74935C18.1157 7.76379 18.3344 8.84713 18.3327 9.99935C18.331 11.1516 18.1121 12.2349 17.676 13.2493C17.2399 14.2638 16.6463 15.1457 15.8952 15.8952C15.1441 16.6446 14.2621 17.2385 13.2493 17.6768C12.2366 18.1152 11.1532 18.3338 9.99935 18.3327Z" fill="currentColor"/>
</svg>
