<svg width="28" height="28" viewBox="0 0 28 28" fill="none" xmlns="http://www.w3.org/2000/svg">
<rect x="0.5" y="0.5" width="27" height="27" rx="13.5" stroke="#F0D6D3"/>
<path d="M13.534 7.18589C13.6625 7.06614 13.8283 7 14 7C14.1717 7 14.3375 7.06614 14.466 7.18589L20.7816 13.0809C20.9136 13.2125 20.9917 13.393 20.9994 13.584C21.0071 13.775 20.9437 13.9617 20.8227 14.1046C20.7018 14.2476 20.5326 14.3355 20.3511 14.3499C20.1695 14.3643 19.9897 14.304 19.8497 14.1817L19.6139 13.9629V19.5263C19.6139 19.9171 19.466 20.292 19.2028 20.5684C18.9396 20.8447 18.5826 21 18.2104 21H9.78959C9.41736 21 9.06038 20.8447 8.79718 20.5684C8.53398 20.292 8.38612 19.9171 8.38612 19.5263V13.9629L8.15033 14.1817C8.01031 14.304 7.83052 14.3643 7.64894 14.3499C7.46737 14.3355 7.29823 14.2476 7.17725 14.1046C7.05628 13.9617 6.99294 13.775 7.00063 13.584C7.00831 13.393 7.08641 13.2125 7.21843 13.0809L13.534 7.18589ZM9.78959 12.6513V19.5263H11.8948V15.8419C11.8948 15.6465 11.9687 15.4591 12.1003 15.3209C12.2319 15.1827 12.4104 15.105 12.5965 15.105H15.4035C15.5896 15.105 15.7681 15.1827 15.8997 15.3209C16.0313 15.4591 16.1052 15.6465 16.1052 15.8419V19.5263H18.2104V12.652L14 8.72226L9.78959 12.6513ZM14.7017 19.5263V16.5788H13.2983V19.5263H14.7017Z" fill="#A8071A"/>
</svg>
