<svg viewBox="0 0 16 16" fill="none" xmlns="http://www.w3.org/2000/svg">
<path d="M11.1673 3.83398C11.1673 3.30355 10.9566 2.79484 10.5815 2.41977C10.2065 2.0447 9.69775 1.83398 9.16732 1.83398H4.83398C4.30355 1.83398 3.79484 2.0447 3.41977 2.41977C3.0447 2.79484 2.83398 3.30355 2.83398 3.83398V10.1673C2.83398 10.6978 3.0447 11.2065 3.41977 11.5815C3.79484 11.9566 4.30355 12.1673 4.83398 12.1673H9.16732C9.69775 12.1673 10.2065 11.9566 10.5815 11.5815C10.9566 11.2065 11.1673 10.6978 11.1673 10.1673V3.83398Z" stroke="currentColor" stroke-width="1.2" stroke-linecap="round" stroke-linejoin="round"/>
<path d="M13.1667 4.5V10.1667C13.1667 11.2275 12.7452 12.2449 11.9951 12.9951C11.2449 13.7452 10.2275 14.1667 9.16667 14.1667H5.5" stroke="currentColor" stroke-width="1.2" stroke-linecap="round" stroke-linejoin="round"/>
</svg>
