<svg width="16" height="16" viewBox="0 0 16 16" fill="none" xmlns="http://www.w3.org/2000/svg">
<path fill-rule="evenodd" clip-rule="evenodd" d="M5.97133 7.91902C5.31733 7.74535 4 7.25835 4 6.15368C4 4.68468 5.79267 2.66602 5.79267 2.66602C5.79267 2.66602 6.37633 1.66602 8.01833 1.66602C9.66 1.66602 10.499 2.66602 10.499 2.66602C10.499 2.66602 11.6667 3.97502 11.6667 6.15368C11.6667 7.27635 11.008 7.73202 10.3697 7.91035C9.851 8.52702 9.05133 8.91802 8.16667 8.91802C7.286 8.91802 6.49033 8.53102 5.97133 7.91902ZM6.16467 6.97168C6.47267 7.71302 7.242 8.25168 8.16633 8.25168C8.54633 8.25168 8.9 8.16035 9.20633 8.00168L9.18567 7.99935C9.18567 7.99935 11.1783 6.07668 9.5 3.66602C9.31767 3.32702 6.54067 4.16602 6.16667 4.66602C5.942 4.96602 6.046 6.10768 6.165 6.97168" fill="#B3B3B3"/>
<path d="M4.811 11.1479C4.60989 11.2711 4.4588 11.4614 4.38441 11.6852C4.31003 11.909 4.31713 12.1519 4.40447 12.371C4.49182 12.59 4.65378 12.7712 4.86174 12.8824C5.0697 12.9936 5.31029 13.0278 5.54099 12.9788C5.77169 12.9299 5.97766 12.8009 6.12251 12.6148C6.26737 12.4287 6.34178 12.1974 6.33261 11.9617C6.32344 11.7261 6.23127 11.5012 6.07239 11.3269C5.91351 11.1526 5.69814 11.0401 5.46433 11.0092C5.45185 10.9645 5.4404 10.9195 5.43 10.8742C5.3846 10.6682 5.34901 10.4602 5.32333 10.2509C5.29578 10.0393 5.2802 9.82626 5.27667 9.61289C5.27613 9.55429 5.27779 9.49569 5.28167 9.43722C5.40989 9.40033 5.53822 9.36733 5.66667 9.33822C5.81367 9.30489 5.901 9.47822 5.97133 9.61889L5.975 9.62622L6 9.67522H9.91633C9.99267 9.53055 10.1657 9.29989 10.3333 9.33822C10.5124 9.37889 10.6912 9.427 10.8697 9.48255L10.8687 9.48289C10.868 9.48222 10.868 9.48244 10.8687 9.48355C10.87 9.48822 10.8773 9.51022 10.8847 9.55689C10.8931 9.61111 10.8987 9.68055 10.9013 9.76522C10.906 9.93322 10.8963 10.1376 10.8767 10.3436C10.8567 10.5492 10.827 10.7482 10.7937 10.9052C10.7863 10.9401 10.779 10.9719 10.7717 11.0006H10.3333C10.2714 11.0006 10.2108 11.0178 10.1582 11.0504C10.1055 11.083 10.063 11.1295 10.0353 11.1849L9.702 11.8516C9.67882 11.8978 9.66672 11.9488 9.66667 12.0006V12.6672C9.66667 12.7556 9.70179 12.8404 9.7643 12.9029C9.82681 12.9654 9.91159 13.0006 10 13.0006H10.6667V12.3339H10.3333V12.0792L10.5393 11.6672H11.4607L11.6667 12.0792V12.3339H11.3333V13.0006H12C12.0884 13.0006 12.1732 12.9654 12.2357 12.9029C12.2982 12.8404 12.3333 12.7556 12.3333 12.6672V12.0006C12.3333 11.9488 12.3212 11.8978 12.298 11.8516L11.9647 11.1849C11.937 11.1295 11.8945 11.083 11.8418 11.0504C11.7892 11.0178 11.7286 11.0006 11.6667 11.0006H11.4547C11.4903 10.8229 11.52 10.6156 11.54 10.4076C11.562 10.1829 11.5733 9.94989 11.5677 9.74655L11.5673 9.73722C12.8967 10.2989 14 11.2226 14 12.1906V14.0006H2V12.1906C2 11.1799 3.20333 10.2172 4.61033 9.66489C4.614 9.87222 4.63367 10.1066 4.662 10.3336C4.69267 10.5786 4.73433 10.8222 4.78033 11.0229C4.79033 11.0658 4.80056 11.1074 4.811 11.1479Z" fill="#B3B3B3"/>
<path d="M5.33333 12.3388C5.51267 12.3388 5.66667 12.1921 5.66667 12.0004C5.66667 11.8091 5.51267 11.6621 5.33333 11.6621C5.154 11.6621 5 11.8088 5 12.0004C5 12.1918 5.154 12.3388 5.33333 12.3388Z" fill="#B3B3B3"/>
</svg>
