<svg viewBox="0 0 16 16" fill="none" xmlns="http://www.w3.org/2000/svg">
<path fill-rule="evenodd" clip-rule="evenodd" d="M11.2787 4.60274C11.2787 5.7564 10.9921 7.26107 10.5511 7.03274C10.3708 7.62164 9.99216 8.12998 9.47958 8.47144C8.96701 8.8129 8.35206 8.96644 7.73914 8.90597C7.12622 8.84551 6.55311 8.57478 6.11714 8.13974C5.68117 7.70471 5.4092 7.13219 5.34741 6.5194C4.90975 5.75374 4.33575 4.2194 5.81141 3.0234C5.83808 3.01474 5.85408 2.94274 5.87808 2.83674C5.96941 2.43574 6.17175 1.5444 7.44808 1.71474C8.43241 1.84574 11.2787 2.35374 11.2787 4.60274ZM10.0101 5.3304C10.0101 5.3304 9.85941 5.77107 10.0007 6.26207C9.99891 6.7856 9.79187 7.28753 9.42408 7.66011C9.05628 8.03268 8.55706 8.24619 8.0336 8.25479C7.51014 8.26338 7.00418 8.06638 6.62435 7.70609C6.24452 7.34579 6.02111 6.85092 6.00208 6.32774C6.05041 6.1444 6.05041 5.83407 6.05008 5.48907C6.04975 4.86674 6.04908 4.1324 6.33408 3.83307C8.33041 5.16274 10.0101 5.3304 10.0101 5.3304Z" fill="currentColor"/>
<path d="M4.33333 12.0006C4.33333 11.6399 4.52433 11.3239 4.811 11.1479C4.80011 11.1064 4.78988 11.0647 4.78033 11.0229C4.72995 10.7951 4.69046 10.5651 4.662 10.3336C4.63357 10.1117 4.61633 9.8885 4.61033 9.66489C3.20333 10.2172 2 11.1799 2 12.1906V14.0006H14V12.1906C14 11.2226 12.8967 10.2989 11.5673 9.73722V9.74656C11.5733 9.94989 11.562 10.1832 11.54 10.4076C11.52 10.6156 11.4903 10.8229 11.4547 11.0006H11.6667C11.7286 11.0006 11.7892 11.0179 11.8418 11.0504C11.8945 11.083 11.937 11.1295 11.9647 11.1849L12.298 11.8516C12.3213 11.8979 12.3333 11.9489 12.3333 12.0006V12.6672C12.3333 12.7556 12.2982 12.8404 12.2357 12.9029C12.1732 12.9654 12.0884 13.0006 12 13.0006H11.3333V12.3339H11.6667V12.0792L11.4607 11.6672H10.5393L10.3333 12.0792V12.3339H10.6667V13.0006H10C9.91159 13.0006 9.82681 12.9654 9.7643 12.9029C9.70179 12.8404 9.66667 12.7556 9.66667 12.6672V12.0006C9.66667 11.9489 9.67867 11.8979 9.702 11.8516L10.0353 11.1849C10.063 11.1295 10.1055 11.083 10.1582 11.0504C10.2108 11.0179 10.2714 11.0006 10.3333 11.0006H10.7717C10.779 10.9719 10.7863 10.9401 10.7937 10.9052C10.827 10.7482 10.8567 10.5492 10.8767 10.3436C10.8967 10.1376 10.906 9.93322 10.901 9.76522C10.8999 9.69562 10.8945 9.62615 10.8847 9.55722C10.8773 9.50989 10.87 9.48822 10.8687 9.48356C10.8682 9.48245 10.8682 9.48222 10.8687 9.48289L10.8697 9.48256C10.6928 9.42769 10.5139 9.37954 10.3333 9.33822C10.1657 9.29989 9.99233 9.53056 9.91667 9.67489H6L5.97133 9.61889C5.90067 9.47822 5.81367 9.30456 5.66667 9.33822C5.53822 9.36733 5.40989 9.40033 5.28167 9.43722C5.27768 9.49569 5.2759 9.55429 5.27633 9.61289C5.27767 9.79722 5.29533 10.0229 5.32367 10.2509C5.352 10.4782 5.39033 10.6996 5.43033 10.8742C5.44189 10.9247 5.453 10.9696 5.46367 11.0089C5.65424 11.0339 5.83355 11.1134 5.98014 11.2377C6.12673 11.362 6.23439 11.526 6.29022 11.7099C6.34605 11.8938 6.34769 12.0899 6.29495 12.2748C6.24221 12.4596 6.13731 12.6253 5.99283 12.7521C5.84834 12.8788 5.67038 12.9613 5.48026 12.9895C5.29013 13.0177 5.0959 12.9906 4.9208 12.9113C4.74571 12.832 4.59718 12.7039 4.49299 12.5424C4.3888 12.3809 4.33337 12.1928 4.33333 12.0006Z" fill="currentColor"/>
<path d="M5.66667 12.0004C5.66667 12.1918 5.51267 12.3388 5.33333 12.3388C5.154 12.3388 5 12.1921 5 12.0004C5 11.8091 5.154 11.6621 5.33333 11.6621C5.51267 11.6621 5.66667 11.8088 5.66667 12.0004Z" fill="currentColor"/>
</svg>
