<svg width="88" height="86" viewBox="0 0 88 86" fill="none" xmlns="http://www.w3.org/2000/svg">
<circle cx="42.7104" cy="40.1694" r="30.1694" fill="#F2F2F2"/>
<circle cx="42.7095" cy="40.1685" r="23.5806" fill="#E6E6E6"/>
<path d="M42.8666 69.9124C40.0966 72.7435 36.2333 74.5005 31.9597 74.5005C26.8586 74.5005 22.3422 71.9973 19.5718 68.1522C18.2043 71.8581 14.6405 74.5005 10.4597 74.5005C5.09718 74.5005 0.75 70.1533 0.75 64.7908C0.75 59.4283 5.09718 55.0812 10.4597 55.0812C12.8861 55.0812 15.1047 55.9712 16.8067 57.4426C17.6972 49.864 24.1418 43.9844 31.9597 43.9844C37.2271 43.9844 41.8711 46.6535 44.6129 50.713C46.8958 48.8892 49.7903 47.7989 52.9395 47.7989C58.7502 47.7989 63.6939 51.511 65.5284 56.6931C66.9269 55.8883 68.5488 55.4279 70.2782 55.4279C75.3553 55.4279 79.5056 59.3954 79.798 64.3991C80.345 64.2037 80.9343 64.0973 81.5484 64.0973C84.4212 64.0973 86.75 66.4261 86.75 69.2989C86.75 72.1717 84.4212 74.5005 81.5484 74.5005C79.5669 74.5005 77.8442 73.3926 76.966 71.7624C75.2448 73.4558 72.8835 74.5005 70.2782 74.5005C67.0644 74.5005 64.2218 72.9107 62.4942 70.4746C60.0697 72.9584 56.6847 74.5005 52.9395 74.5005C48.9194 74.5005 45.3142 72.7236 42.8666 69.9124Z" fill="#F8F6F6"/>
<path d="M0.75 64.7908C0.75 59.4283 5.09718 55.0811 10.4597 55.0811C12.8861 55.0811 15.1047 55.9712 16.8067 57.4426C17.6972 49.864 24.1418 43.9844 31.9597 43.9844C37.2271 43.9844 41.8711 46.6535 44.6129 50.713C46.8958 48.8892 49.7903 47.7989 52.9395 47.7989C58.7502 47.7989 63.6939 51.511 65.5284 56.6931C66.9269 55.8883 68.5488 55.4279 70.2782 55.4279C75.3553 55.4279 79.5056 59.3954 79.798 64.3991C80.345 64.2037 80.9343 64.0973 81.5484 64.0973C84.4212 64.0973 86.75 66.4261 86.75 69.2989" stroke="#E6E6E6" stroke-width="1.5" stroke-linecap="round"/>
<circle cx="60.7415" cy="27.6849" r="1.04032" stroke="#B3B3B3"/>
<circle cx="70.4514" cy="52.6525" r="0.693548" stroke="#B3B3B3"/>
<ellipse cx="16.1816" cy="47.2773" rx="1.56048" ry="1.56048" stroke="#B3B3B3"/>
<path d="M28.1329 36.0084H24.6771M30.5723 33.0168V30.1133" stroke="#B3B3B3" stroke-width="1.54963" stroke-linecap="round"/>
<path d="M28.3359 33.6326L26.0373 31.334" stroke="#B3B3B3" stroke-width="1.54963" stroke-linecap="round"/>
<ellipse cx="42.8832" cy="72.9394" rx="17.5121" ry="1.56048" fill="#F2F2F2"/>
<ellipse cx="41.8421" cy="46.2385" rx="9.88307" ry="9.88307" fill="#F2F2F2"/>
<rect x="50.6875" y="50.5059" width="19.3296" height="6.91795" rx="3.45897" transform="rotate(45 50.6875 50.5059)" fill="#B3B3B3"/>
<circle cx="41.9121" cy="46.6217" r="11.1151" transform="rotate(45 41.9121 46.6217)" stroke="#B3B3B3" stroke-width="3"/>
<path d="M42.25 51.5C45.0114 51.5 47.25 49.2614 47.25 46.5C47.25 43.7386 45.0114 41.5 42.25 41.5C39.4886 41.5 37.25 43.7386 37.25 46.5C37.25 49.2614 39.4886 51.5 42.25 51.5Z" fill="black" fill-opacity="0.05"/>
<path d="M40.584 44.834L43.9173 48.1673M43.9173 44.834L40.584 48.1673" stroke="#B3B3B3" stroke-linecap="round"/>
<path fill-rule="evenodd" clip-rule="evenodd" d="M40.1373 30.0066C40.5637 30.0066 40.9093 30.3522 40.9093 30.7786C40.9093 31.2049 40.5637 31.5506 40.1373 31.5506C39.7111 31.5505 39.3653 31.2048 39.3653 30.7786C39.3653 30.3523 39.7111 30.0067 40.1373 30.0066ZM53.573 34.9598C55.6885 37.0752 57.1106 39.6247 57.8364 42.3222C57.9471 42.7339 57.7026 43.1575 57.2909 43.2683C56.8794 43.3786 56.4563 43.1349 56.3455 42.7234C55.6881 40.2802 54.4005 37.9707 52.4813 36.0515C49.8031 33.3734 46.3634 31.9244 42.8587 31.7032C42.4333 31.6764 42.1097 31.3097 42.1364 30.8842C42.1633 30.4587 42.5299 30.1351 42.9554 30.1619C46.8209 30.4057 50.6188 32.0057 53.573 34.9598Z" fill="#B3B3B3"/>
<path d="M52.7891 55.6465L60.6631 63.5205" stroke="white" stroke-width="2.2998" stroke-linecap="round"/>
</svg>
