<svg viewBox="0 0 16 16" fill="none" xmlns="http://www.w3.org/2000/svg">
<path d="M2.12276 8.5396C2.82343 9.74294 4.7981 12.5409 8.00143 12.5409C11.2101 12.5409 13.1814 9.7416 13.8814 8.5396C13.9768 8.37621 14.027 8.19038 14.0269 8.00118C14.0268 7.81198 13.9764 7.62622 13.8808 7.46294C13.1808 6.26027 11.2074 3.46094 8.00143 3.46094C4.79543 3.46094 2.82276 6.25894 2.12276 7.4616C2.02703 7.6251 1.97656 7.81114 1.97656 8.0006C1.97656 8.19007 2.02703 8.37611 2.12276 8.5396Z" stroke="currentColor" stroke-linejoin="round"/>
<path d="M8 9.75C8.46413 9.75 8.90925 9.56563 9.23744 9.23744C9.56563 8.90925 9.75 8.46413 9.75 8C9.75 7.53587 9.56563 7.09075 9.23744 6.76256C8.90925 6.43437 8.46413 6.25 8 6.25C7.53587 6.25 7.09075 6.43437 6.76256 6.76256C6.43437 7.09075 6.25 7.53587 6.25 8C6.25 8.46413 6.43437 8.90925 6.76256 9.23744C7.09075 9.56563 7.53587 9.75 8 9.75Z" stroke="currentColor" stroke-linejoin="round"/>
</svg>
