<svg viewBox="0 0 20 20" fill="none" xmlns="http://www.w3.org/2000/svg">
<path d="M9.99935 1.66602C14.6018 1.66602 18.3327 5.39685 18.3327 9.99935C18.3327 14.6019 14.6018 18.3327 9.99935 18.3327C5.39685 18.3327 1.66602 14.6019 1.66602 9.99935H3.33268C3.33281 11.5671 3.8854 13.0846 4.89337 14.2853C5.90135 15.4859 7.30022 16.293 8.8442 16.5647C10.3882 16.8363 11.9785 16.5551 13.3358 15.7705C14.693 14.986 15.7304 13.7482 16.2655 12.2747C16.8007 10.8011 16.7995 9.18615 16.2621 7.71345C15.7246 6.24074 14.6854 5.00454 13.327 4.22203C11.9685 3.43953 10.3778 3.16078 8.8342 3.43477C7.29063 3.70876 5.89299 4.51796 4.88685 5.72019L6.66601 7.49935H1.66602V2.49935L3.70518 4.53769C4.48675 3.63534 5.45342 2.91182 6.53949 2.41631C7.62556 1.9208 8.80558 1.66491 9.99935 1.66602ZM10.8327 5.83269V9.65352L13.5352 12.356L12.356 13.5352L9.16601 10.3435V5.83269H10.8327Z" fill="currentColor"/>
</svg>
