<svg viewBox="0 0 20 20" fill="none" xmlns="http://www.w3.org/2000/svg">
<path d="M17.4483 15.4167H16.8966V10C16.8966 9.71268 16.7803 9.43713 16.5734 9.23397C16.3664 9.0308 16.0858 8.91667 15.7931 8.91667H11.931V4.58333C11.931 4.29602 11.8148 4.02047 11.6078 3.8173C11.4009 3.61414 11.1202 3.5 10.8276 3.5H4.2069C3.91424 3.5 3.63358 3.61414 3.42664 3.8173C3.2197 4.02047 3.10345 4.29602 3.10345 4.58333V15.4167H2.55172C2.4054 15.4167 2.26506 15.4737 2.1616 15.5753C2.05813 15.6769 2 15.8147 2 15.9583C2 16.102 2.05813 16.2398 2.1616 16.3414C2.26506 16.4429 2.4054 16.5 2.55172 16.5H17.4483C17.5946 16.5 17.7349 16.4429 17.8384 16.3414C17.9419 16.2398 18 16.102 18 15.9583C18 15.8147 17.9419 15.6769 17.8384 15.5753C17.7349 15.4737 17.5946 15.4167 17.4483 15.4167ZM15.7931 10V15.4167H11.931V10H15.7931ZM4.2069 4.58333H10.8276V15.4167H9.72414V12.1667C9.72414 12.023 9.66601 11.8852 9.56254 11.7837C9.45907 11.6821 9.31874 11.625 9.17241 11.625H5.86207C5.71574 11.625 5.57541 11.6821 5.47194 11.7837C5.36847 11.8852 5.31034 12.023 5.31034 12.1667V15.4167H4.2069V4.58333ZM8.62069 15.4167H6.41379V12.7083H8.62069V15.4167ZM5.31034 7.83333C5.31034 7.68967 5.36847 7.5519 5.47194 7.45032C5.57541 7.34874 5.71574 7.29167 5.86207 7.29167H6.96552V6.20833C6.96552 6.06467 7.02365 5.9269 7.12711 5.82532C7.23058 5.72374 7.37091 5.66667 7.51724 5.66667C7.66357 5.66667 7.8039 5.72374 7.90737 5.82532C8.01084 5.9269 8.06897 6.06467 8.06897 6.20833V7.29167H9.17241C9.31874 7.29167 9.45907 7.34874 9.56254 7.45032C9.66601 7.5519 9.72414 7.68967 9.72414 7.83333C9.72414 7.97699 9.66601 8.11477 9.56254 8.21635C9.45907 8.31793 9.31874 8.375 9.17241 8.375H8.06897V9.45833C8.06897 9.60199 8.01084 9.73977 7.90737 9.84135C7.8039 9.94293 7.66357 10 7.51724 10C7.37091 10 7.23058 9.94293 7.12711 9.84135C7.02365 9.73977 6.96552 9.60199 6.96552 9.45833V8.375H5.86207C5.71574 8.375 5.57541 8.31793 5.47194 8.21635C5.36847 8.11477 5.31034 7.97699 5.31034 7.83333Z" fill="currentColor"/>
</svg>
