<svg width="10" height="10" viewBox="0 0 10 10" fill="none" xmlns="http://www.w3.org/2000/svg">
<g clip-path="url(#clip0_2383_7025)">
<path fill-rule="evenodd" clip-rule="evenodd" d="M1.5 0C1.23478 0 0.98043 0.105357 0.792893 0.292893C0.605357 0.48043 0.5 0.734784 0.5 1V9.45C0.5 9.52223 0.514226 9.59375 0.541866 9.66048C0.569506 9.72721 0.610019 9.78784 0.661091 9.83891C0.712164 9.88998 0.772795 9.93049 0.839524 9.95813C0.906253 9.98577 0.977773 10 1.05 10H8.95C9.02223 10 9.09375 9.98577 9.16048 9.95813C9.22721 9.93049 9.28784 9.88998 9.33891 9.83891C9.38998 9.78784 9.43049 9.72721 9.45813 9.66048C9.48577 9.59375 9.5 9.52223 9.5 9.45V4.5C9.5 4.23478 9.39464 3.98043 9.20711 3.79289C9.01957 3.60536 8.76522 3.5 8.5 3.5H8.25C8.1837 3.5 8.12011 3.52634 8.07322 3.57322C8.02634 3.62011 8 3.6837 8 3.75V9H7.5V1C7.5 0.734784 7.39464 0.48043 7.20711 0.292893C7.01957 0.105357 6.76522 0 6.5 0H1.5ZM4 1.5C3.86739 1.5 3.74021 1.55268 3.64645 1.64645C3.55268 1.74021 3.5 1.86739 3.5 2V2.5H3C2.86739 2.5 2.74021 2.55268 2.64645 2.64645C2.55268 2.74021 2.5 2.86739 2.5 3C2.5 3.13261 2.55268 3.25979 2.64645 3.35355C2.74021 3.44732 2.86739 3.5 3 3.5H3.5V4C3.5 4.13261 3.55268 4.25979 3.64645 4.35355C3.74021 4.44732 3.86739 4.5 4 4.5C4.13261 4.5 4.25979 4.44732 4.35355 4.35355C4.44732 4.25979 4.5 4.13261 4.5 4V3.5H5C5.13261 3.5 5.25979 3.44732 5.35355 3.35355C5.44732 3.25979 5.5 3.13261 5.5 3C5.5 2.86739 5.44732 2.74021 5.35355 2.64645C5.25979 2.55268 5.13261 2.5 5 2.5H4.5V2C4.5 1.86739 4.44732 1.74021 4.35355 1.64645C4.25979 1.55268 4.13261 1.5 4 1.5ZM4 6C3.73478 6 3.48043 6.10536 3.29289 6.29289C3.10536 6.48043 3 6.73478 3 7V9H5V7C5 6.73478 4.89464 6.48043 4.70711 6.29289C4.51957 6.10536 4.26522 6 4 6Z" fill="white"/>
</g>
<defs>
<clipPath id="clip0_2383_7025">
<rect width="10" height="10" fill="white"/>
</clipPath>
</defs>
</svg>
