<svg viewBox="0 0 20 20" fill="none" xmlns="http://www.w3.org/2000/svg">
<path fill-rule="evenodd" clip-rule="evenodd" d="M17.5 2.5H2.5V14.1667H9.61254C9.32898 13.6764 9.16668 13.1071 9.16668 12.5H4.16668V4.16668H15.8333V12.5C15.8333 13.1071 15.671 13.6764 15.3874 14.1667H17.5V2.5ZM9.45375 17.5441L10.4718 15.1456C10.91 15.4821 11.4343 15.7121 12.0059 15.797L10.9879 18.1953L9.45375 17.5441ZM14.0122 18.1952L12.9942 15.797C13.5658 15.712 14.09 15.482 14.5282 15.1455L15.5464 17.544L14.0122 18.1952ZM12.4998 10C13.8809 10 15 11.1192 15 12.5C15 13.8808 13.8808 15 12.4998 15C11.1191 15 10 13.8808 10 12.5C10 11.1192 11.1191 10 12.4998 10ZM5.83332 5.83332H14.1667V7.5H5.83332V5.83332ZM9.16668 9.16668H5.83332V10.8333H9.16668V9.16668ZM13.3333 12.5C13.3333 12.0397 12.9603 11.6667 12.5 11.6667C12.0396 11.6667 11.6667 12.0397 11.6667 12.5C11.6667 12.9603 12.0397 13.3333 12.5 13.3333C12.9603 13.3333 13.3333 12.9603 13.3333 12.5Z" fill="currentColor"/>
</svg>
