<svg viewBox="0 0 16 16" fill="none" xmlns="http://www.w3.org/2000/svg">
<path d="M8 2C6.67438 2.00142 5.40348 2.49856 4.46613 3.38236C3.52877 4.26616 3.0015 5.46445 3 6.71433C3 10.7483 7.54545 13.7949 7.7392 13.9224C7.81563 13.9729 7.90669 14 8 14C8.09331 14 8.18437 13.9729 8.2608 13.9224C8.45455 13.7949 13 10.7483 13 6.71433C12.9985 5.46445 12.4712 4.26616 11.5339 3.38236C10.5965 2.49856 9.32562 2.00142 8 2ZM8 5.00003C8.3596 5.00003 8.71113 5.10057 9.01013 5.28894C9.30913 5.47731 9.54217 5.74505 9.67978 6.0583C9.8174 6.37155 9.8534 6.71623 9.78325 7.04878C9.71309 7.38132 9.53993 7.68678 9.28565 7.92653C9.03137 8.16628 8.7074 8.32955 8.35471 8.3957C8.00202 8.46184 7.63644 8.42789 7.30421 8.29814C6.97198 8.16839 6.68802 7.94866 6.48824 7.66675C6.28845 7.38483 6.18182 7.05339 6.18182 6.71433C6.18182 6.25967 6.37338 5.82363 6.71435 5.50214C7.05533 5.18064 7.51779 5.00003 8 5.00003Z" fill="currentColor"/>
</svg>
