<svg width="1em" height="1em" viewBox="0 0 14 14" fill="none" xmlns="http://www.w3.org/2000/svg">
<path d="M7 2C5.9395 2.00118 4.92279 2.41547 4.1729 3.15197C3.42302 3.88847 3.0012 4.88704 3 5.92861C3 9.29025 6.63636 11.8291 6.79136 11.9354C6.85251 11.9774 6.92535 12 7 12C7.07465 12 7.14749 11.9774 7.20864 11.9354C7.36364 11.8291 11 9.29025 11 5.92861C10.9988 4.88704 10.577 3.88847 9.8271 3.15197C9.07721 2.41547 8.0605 2.00118 7 2ZM7 4.50003C7.28768 4.50003 7.5689 4.58381 7.8081 4.74079C8.0473 4.89776 8.23373 5.12087 8.34382 5.38191C8.45392 5.64295 8.48272 5.9302 8.4266 6.20731C8.37047 6.48443 8.23194 6.73898 8.02852 6.93877C7.8251 7.13857 7.56592 7.27462 7.28377 7.32975C7.00161 7.38487 6.70915 7.35658 6.44337 7.24845C6.17759 7.14033 5.95042 6.95722 5.79059 6.72229C5.63076 6.48736 5.54545 6.21116 5.54545 5.92861C5.54545 5.54973 5.6987 5.18636 5.97148 4.91845C6.24426 4.65054 6.61423 4.50003 7 4.50003Z" fill="#E22A36"/>
</svg>
