<svg viewBox="0 0 16 16" fill="none" xmlns="http://www.w3.org/2000/svg">
<path d="M12 6.80006C12 9.7959 8.88431 12.9159 7.83806 13.8795C7.74059 13.9577 7.62195 14 7.5 14C7.37805 14 7.25941 13.9577 7.16194 13.8795C6.11569 12.9159 3 9.7959 3 6.80006C3 5.527 3.47411 4.30609 4.31802 3.40591C5.16193 2.50572 6.30653 2 7.5 2C8.69347 2 9.83807 2.50572 10.682 3.40591C11.5259 4.30609 12 5.527 12 6.80006Z" stroke="currentColor" stroke-linecap="round" stroke-linejoin="round"/>
<path d="M7.5 8.60008C8.43198 8.60008 9.1875 7.79418 9.1875 6.80006C9.1875 5.80593 8.43198 5.00004 7.5 5.00004C6.56802 5.00004 5.8125 5.80593 5.8125 6.80006C5.8125 7.79418 6.56802 8.60008 7.5 8.60008Z" stroke="currentColor" stroke-linecap="round" stroke-linejoin="round"/>
</svg>
