<svg viewBox="0 0 16 16" fill="none" xmlns="http://www.w3.org/2000/svg">
<g clip-path="url(#clip0_278_1912)">
<path fill-rule="evenodd" clip-rule="evenodd" d="M1.76897 14.0002V3.78759H14.2341V13.9979C14.2343 14.0286 14.2283 14.059 14.2167 14.0874C14.2051 14.1159 14.1879 14.1417 14.1662 14.1635C14.1446 14.1852 14.1188 14.2025 14.0905 14.2143C14.0621 14.2261 14.0317 14.2322 14.001 14.2322H2.00212C1.9714 14.2322 1.94099 14.2261 1.91263 14.2143C1.88427 14.2025 1.85852 14.1852 1.83685 14.1635C1.81519 14.1417 1.79804 14.1159 1.78639 14.0874C1.77474 14.059 1.76882 14.0286 1.76897 13.9979V14.0002ZM0.0546875 2.00016C0.0546875 0.925877 0.926687 0.0527344 2.00097 0.0527344H14.001C15.0753 0.0527344 15.9484 0.924734 15.9484 2.00016V14.0002C15.9484 15.0744 15.0753 15.9476 13.9998 15.9476H2.00212C1.48552 15.9473 0.990188 15.7419 0.625007 15.3765C0.259826 15.0111 0.0546874 14.5156 0.0546875 13.999V2.00016Z" fill="currentColor"/>
<path d="M7.27376 5.76091C7.21474 5.76046 7.15623 5.77173 7.1016 5.79407C7.04698 5.81641 6.99734 5.84937 6.95556 5.89105C6.91377 5.93272 6.88068 5.98228 6.8582 6.03685C6.83573 6.09141 6.82431 6.1499 6.82461 6.20891V7.99177H5.04176C4.98284 7.99147 4.92445 8.00285 4.86996 8.02526C4.81547 8.04766 4.76596 8.08065 4.7243 8.12231C4.68264 8.16397 4.64965 8.21348 4.62724 8.26797C4.60483 8.32246 4.59345 8.38085 4.59376 8.43977V9.89806C4.59376 10.1461 4.79376 10.3472 5.04176 10.3472H6.82461V12.1301C6.82461 12.3781 7.02576 12.5781 7.27261 12.5781H8.72976C8.78877 12.5785 8.84728 12.5672 8.90191 12.5449C8.95653 12.5226 9.00617 12.4896 9.04796 12.4479C9.08974 12.4062 9.12283 12.3567 9.14531 12.3021C9.16778 12.2476 9.1792 12.1891 9.1789 12.1301V10.3472H10.9618C11.0208 10.3475 11.0793 10.3361 11.1338 10.3136C11.1884 10.2911 11.2379 10.258 11.2796 10.2163C11.3213 10.1745 11.3543 10.1248 11.3766 10.0702C11.3989 10.0156 11.4102 9.95707 11.4098 9.89806V8.43977C11.4101 8.38085 11.3987 8.32246 11.3763 8.26797C11.3539 8.21348 11.3209 8.16397 11.2792 8.12231C11.2376 8.08065 11.188 8.04766 11.1336 8.02526C11.0791 8.00285 11.0207 7.99147 10.9618 7.99177H9.1789V6.20891C9.17935 6.1499 9.16808 6.09139 9.14575 6.03676C9.12341 5.98214 9.09044 5.9325 9.04877 5.89071C9.00709 5.84893 8.95753 5.81584 8.90296 5.79336C8.8484 5.77089 8.78991 5.75947 8.7309 5.75977L7.27376 5.76091Z" fill="currentColor"/>
</g>
<defs>
<clipPath id="clip0_278_1912">
<rect width="16" height="16" fill="white"/>
</clipPath>
</defs>
</svg>
