<svg viewBox="0 0 20 20" fill="none" xmlns="http://www.w3.org/2000/svg">
<path d="M17.4987 9.16917H17.352L15.8329 4.725L2.7937 9.16917L2.4987 9.16667M2.08203 9.17H2.4987L11.787 1.75L14.1345 5.04167" stroke="currentColor" stroke-width="1.5" stroke-linecap="square"/>
<path d="M12.0807 13.3333C12.0807 13.8859 11.8612 14.4158 11.4705 14.8065C11.0798 15.1972 10.5499 15.4167 9.9974 15.4167C9.44486 15.4167 8.91496 15.1972 8.52426 14.8065C8.13356 14.4158 7.91406 13.8859 7.91406 13.3333C7.91406 12.7808 8.13356 12.2509 8.52426 11.8602C8.91496 11.4695 9.44486 11.25 9.9974 11.25C10.5499 11.25 11.0798 11.4695 11.4705 11.8602C11.8612 12.2509 12.0807 12.7808 12.0807 13.3333Z" stroke="currentColor" stroke-width="1.5" stroke-linecap="square"/>
<path d="M17.9154 9.16602V17.4993H2.08203V9.16602H17.9154Z" stroke="#E22A36" stroke-width="1.5" stroke-linecap="square"/>
<path d="M2.08203 9.16602H3.7487C3.7487 9.60804 3.5731 10.032 3.26054 10.3445C2.94798 10.6571 2.52406 10.8327 2.08203 10.8327V9.16602ZM17.9154 9.16602H16.2487C16.2487 9.60804 16.4243 10.032 16.7369 10.3445C17.0494 10.6571 17.4733 10.8327 17.9154 10.8327V9.16602ZM2.08203 17.4993H3.75036C3.75058 17.2802 3.70758 17.0632 3.62382 16.8606C3.54005 16.6581 3.41717 16.4741 3.26221 16.3192C3.10725 16.1642 2.92324 16.0413 2.72073 15.9576C2.51822 15.8738 2.30118 15.8308 2.08203 15.831V17.4993ZM17.9154 17.4993H16.2487C16.2487 17.0573 16.4243 16.6334 16.7369 16.3208C17.0494 16.0083 17.4733 15.8327 17.9154 15.8327V17.4993Z" stroke="currentColor" stroke-width="1.5" stroke-linecap="square"/>
</svg>
