<svg width="20" height="20" viewBox="0 0 20 20" fill="none" xmlns="http://www.w3.org/2000/svg">
<path d="M6.31641 3.40065L5.12474 2.20898C3.12474 3.73398 1.80807 6.08398 1.69141 8.75065H3.35807C3.4174 7.69389 3.71419 6.66411 4.22636 5.73786C4.73854 4.81162 5.45293 4.01275 6.31641 3.40065ZM16.6414 8.75065H18.3081C18.1831 6.08398 16.8664 3.73398 14.8747 2.20898L13.6914 3.40065C14.5512 4.01575 15.2624 4.81551 15.7729 5.74125C16.2833 6.667 16.5801 7.69527 16.6414 8.75065ZM14.9997 9.16732C14.9997 6.60898 13.6331 4.46732 11.2497 3.90065V3.33398C11.2497 2.64232 10.6914 2.08398 9.99974 2.08398C9.30807 2.08398 8.74974 2.64232 8.74974 3.33398V3.90065C6.35807 4.46732 4.99974 6.60065 4.99974 9.16732V13.334L3.33307 15.0006V15.834H16.6664V15.0006L14.9997 13.334V9.16732ZM9.99974 18.334C10.1164 18.334 10.2247 18.3256 10.3331 18.3006C10.8747 18.184 11.3164 17.8173 11.5331 17.3173C11.6164 17.1173 11.6581 16.9007 11.6581 16.6673H8.32474C8.33307 17.584 9.07474 18.334 9.99974 18.334Z" fill="#D46B08"/>
</svg>
