<svg width="21" height="23" viewBox="0 0 21 23" fill="none" xmlns="http://www.w3.org/2000/svg">
<path d="M10.2702 18.275H18.2152C18.5246 18.2924 18.8333 18.2302 19.1118 18.0944C19.3904 17.9585 19.6295 17.7537 19.8063 17.4992C19.9832 17.2448 20.092 16.9493 20.1222 16.6409C20.1525 16.3325 20.1033 16.0215 19.9792 15.7375C19.5592 14.4682 17.8851 12.9457 17.8851 11.4477C17.8851 8.12268 17.8851 7.24768 16.2482 5.29235C15.7178 4.66284 15.0602 4.15272 14.3186 3.79552L13.4051 3.35218C13.2518 3.25967 13.1196 3.1361 13.0169 2.98942C12.9142 2.84275 12.8434 2.67621 12.8089 2.50052C12.7176 1.90833 12.4045 1.37303 11.933 1.0032C11.4616 0.633377 10.8671 0.456703 10.2702 0.509018C9.68417 0.47409 9.10611 0.658737 8.64882 1.02694C8.19153 1.39515 7.88781 1.9205 7.7969 2.50052C7.7559 2.68217 7.67551 2.85259 7.56141 2.99976C7.4473 3.14692 7.30227 3.26723 7.13656 3.35218L6.2219 3.79552C5.48111 4.153 4.82429 4.6631 4.29456 5.29235C2.65773 7.24768 2.65773 8.12268 2.65773 11.4477C2.65773 12.9457 1.0594 14.3154 0.639398 15.6605C0.386231 16.4737 0.246231 18.275 2.36606 18.275H10.2702Z" stroke="#B3B3B3" stroke-linecap="round" stroke-linejoin="round"/>
<path d="M14.0794 18.2754C14.09 18.7783 13.9988 19.2782 13.8112 19.745C13.6236 20.2118 13.3435 20.6357 12.9877 20.9914C12.6319 21.347 12.2079 21.627 11.7411 21.8145C11.2742 22.002 10.7743 22.093 10.2714 22.0822C9.76858 22.0929 9.26884 22.0017 8.80221 21.8141C8.33559 21.6266 7.91175 21.3466 7.5562 20.9909C7.20065 20.6352 6.92074 20.2113 6.73333 19.7446C6.54593 19.278 6.45489 18.7782 6.46571 18.2754" stroke="#B3B3B3" stroke-linecap="round" stroke-linejoin="round"/>
</svg>
