<svg width="20" height="20" viewBox="0 0 20 20" fill="none" xmlns="http://www.w3.org/2000/svg">
<path d="M7.33333 9.5C7.33333 10.1756 7.36356 10.8305 7.41973 11.4556H12.5803C12.6364 10.8305 12.6667 10.1756 12.6667 9.5C12.6667 8.82444 12.6364 8.16951 12.5799 7.54444H7.42044C7.36356 8.16951 7.33333 8.82444 7.33333 9.5ZM6.34951 7.54444C6.29386 8.19481 6.26622 8.84726 6.26667 9.5C6.26667 10.1706 6.29511 10.8252 6.34916 11.4556H2.24071C2.08356 10.8298 2 10.1745 2 9.5C2 8.82551 2.08356 8.17022 2.24071 7.54444H6.34951ZM7.54631 6.47778H12.4533C12.2955 5.40151 12.0565 4.44187 11.7604 3.6536C11.4834 2.91653 11.1669 2.35653 10.843 1.99102C10.5184 1.62409 10.2318 1.5 10 1.5C9.76818 1.5 9.4816 1.62444 9.15662 1.99067C8.83271 2.35689 8.51627 2.91653 8.23929 3.6536C7.94311 4.44187 7.70418 5.40151 7.54596 6.47778M13.6505 7.54444C13.7049 8.17484 13.7333 8.82942 13.7333 9.5C13.7333 10.1706 13.7049 10.8252 13.6508 11.4556H17.7593C17.9164 10.8298 18 10.1745 18 9.5C18 8.82551 17.9164 8.17022 17.7593 7.54444H13.6505ZM17.4098 6.47778H13.531C13.3639 5.27316 13.0994 4.18444 12.7591 3.27849C12.5419 2.70036 12.2887 2.18267 12.0004 1.75209C14.4608 2.38569 16.4626 4.16027 17.4091 6.47778M6.46862 6.47778H2.59058C3.53671 4.16027 5.53884 2.38569 7.99929 1.75244C7.71129 2.18267 7.45778 2.70036 7.24053 3.27849C6.90027 4.18444 6.63609 5.27316 6.46898 6.47778M6.46791 12.5222H2.59058C3.53636 14.8387 5.53671 16.6125 7.99502 17.2468C7.70702 16.8166 7.45458 16.2989 7.23769 15.7215C6.89813 14.8148 6.63431 13.7268 6.46791 12.5222ZM11.7636 15.3468C12.0587 14.5585 12.2969 13.5988 12.4548 12.5222H7.54524C7.70276 13.5988 7.94098 14.5585 8.23644 15.3468C8.51307 16.0838 8.82916 16.6435 9.15378 17.009C9.47804 17.3752 9.76533 17.5 10 17.5C10.2347 17.5 10.522 17.3752 10.8462 17.009C11.1708 16.6435 11.4869 16.0838 11.7636 15.3468ZM12.7623 15.7212C13.1019 14.8152 13.3657 13.7265 13.5321 12.5222H17.4094C16.4636 14.8387 14.4633 16.6125 12.005 17.2468C12.293 16.8166 12.5454 16.2986 12.7623 15.7212Z" fill="#E22A36"/>
</svg>
