<svg viewBox="0 0 20 20" fill="none" xmlns="http://www.w3.org/2000/svg">
<path d="M15.8346 7.57574V5.00073C15.8346 4.5424 15.4596 4.1674 15.0013 4.1674H12.4263L10.5846 2.32573C10.5075 2.24848 10.4159 2.18719 10.3151 2.14537C10.2143 2.10356 10.1062 2.08203 9.99709 2.08203C9.88795 2.08203 9.77988 2.10356 9.67907 2.14537C9.57826 2.18719 9.48668 2.24848 9.40959 2.32573L7.56792 4.1674H4.99292C4.53459 4.1674 4.15959 4.5424 4.15959 5.00073V7.57574L2.31792 9.4174C2.24067 9.4945 2.17938 9.58607 2.13756 9.68688C2.09574 9.78769 2.07422 9.89576 2.07422 10.0049C2.07422 10.114 2.09574 10.2221 2.13756 10.3229C2.17938 10.4237 2.24067 10.5153 2.31792 10.5924L4.15959 12.4341V15.0091C4.15959 15.4674 4.53459 15.8424 4.99292 15.8424H7.56792L9.40959 17.6841C9.57626 17.8507 9.78459 17.9257 10.0013 17.9257C10.2179 17.9257 10.4263 17.8424 10.5929 17.6841L12.4346 15.8424H15.0096C15.4679 15.8424 15.8429 15.4674 15.8429 15.0091V12.4341L17.6846 10.5924C17.7618 10.5153 17.8231 10.4237 17.8649 10.3229C17.9068 10.2221 17.9283 10.114 17.9283 10.0049C17.9283 9.89576 17.9068 9.78769 17.8649 9.68688C17.8231 9.58607 17.7618 9.4945 17.6846 9.4174L15.8429 7.57574H15.8346ZM14.4096 11.5007C14.3324 11.5786 14.2712 11.6709 14.2298 11.7725C14.1883 11.874 14.1673 11.9827 14.1679 12.0924V14.1757H12.0846C11.8596 14.1757 11.6513 14.2674 11.4929 14.4174L10.0013 15.9091L8.50959 14.4174C8.43172 14.3402 8.33938 14.2791 8.23784 14.2376C8.13631 14.1961 8.02759 14.1751 7.91792 14.1757H5.83459V12.0924C5.83459 11.8674 5.74292 11.6591 5.59292 11.5007L4.10126 10.0091L5.59292 8.5174C5.67016 8.43954 5.73126 8.34719 5.77273 8.24566C5.8142 8.14413 5.83522 8.03541 5.83459 7.92574V5.8424H7.91792C8.14292 5.8424 8.35126 5.75073 8.50959 5.60073L10.0013 4.10907L11.4929 5.60073C11.6513 5.75907 11.8596 5.8424 12.0846 5.8424H14.1679V7.92574C14.1679 8.15074 14.2596 8.35907 14.4096 8.5174L15.9013 10.0091L14.4096 11.5007Z" fill="currentColor"/>
<path d="M9.16849 10.4922L8.09349 9.40885L6.91016 10.5922L9.16849 12.8422L13.0935 8.92552L11.9102 7.74219L9.16849 10.4922Z" fill="currentColor"/>
</svg>
