<svg viewBox="0 0 20 20" fill="none" xmlns="http://www.w3.org/2000/svg">
<path d="M17.543 9.51914L1.54297 2.54492L3.76641 8.84432H8.76864V10.194H3.76641L1.54297 16.494L10.0251 12.796C10.2245 12.2254 10.5397 11.7022 10.9508 11.2591C11.3619 10.816 11.8602 10.4626 12.4143 10.221C12.9684 9.97953 13.5664 9.85509 14.1708 9.85554C14.7753 9.85599 15.3731 9.98131 15.9268 10.2236L17.543 9.51914Z" fill="currentColor"/>
<path d="M16.0794 11.3789L14.1711 13.288L12.2627 11.3789L11.3086 12.3338L13.2169 14.2421L11.3086 16.1505L12.2627 17.1054L14.1711 15.1963L16.08 17.1054L17.0342 16.1505L15.1259 14.2421L17.0342 12.3338L16.0794 11.3789Z" fill="currentColor"/>
</svg>
