<svg width="24" height="24" viewBox="0 0 24 24" fill="none" xmlns="http://www.w3.org/2000/svg">
<path d="M10.2772 16.5151C10.2822 16.4051 10.4632 16.3612 10.5172 16.4572C10.7712 16.9072 11.2031 17.5681 11.6931 17.8691C12.1831 18.1701 12.9692 18.2552 13.4851 18.2772C13.5951 18.2822 13.6382 18.4632 13.5422 18.5171C13.0922 18.7711 12.4321 19.2032 12.1311 19.6932C11.8301 20.1832 11.7451 20.9692 11.7231 21.4852C11.7181 21.5952 11.5361 21.6381 11.4831 21.5421C11.2291 21.0921 10.7971 20.4322 10.3061 20.1312C9.81615 19.8302 9.03015 19.7451 8.51515 19.7231C8.40515 19.7181 8.36115 19.5361 8.45715 19.4831C8.90715 19.2291 9.56815 18.7971 9.86915 18.3061C10.1692 17.8161 10.2552 17.0301 10.2772 16.5151Z" fill="#FFC800"/>
<path d="M18.492 15.515C18.483 15.405 18.292 15.359 18.234 15.453C18.062 15.736 17.814 16.076 17.537 16.246C17.26 16.416 16.845 16.482 16.515 16.508C16.405 16.516 16.359 16.708 16.453 16.765C16.735 16.937 17.076 17.185 17.246 17.462C17.416 17.739 17.482 18.155 17.508 18.485C17.516 18.595 17.708 18.64 17.765 18.546C17.937 18.264 18.185 17.923 18.462 17.754C18.739 17.585 19.155 17.517 19.485 17.492C19.595 17.483 19.64 17.292 19.546 17.234C19.264 17.062 18.923 16.814 18.754 16.537C18.585 16.26 18.517 15.845 18.492 15.515Z" fill="#D29922"/>
<path d="M14.7034 4.00238L14.4614 3.69638C13.5244 2.51338 13.0564 1.92138 12.5114 2.00838C11.9674 2.09638 11.7064 2.80438 11.1854 4.22138L11.0504 4.58738C10.9024 4.99038 10.8284 5.19138 10.6864 5.33938C10.5444 5.48738 10.3504 5.56438 9.96239 5.71938L9.60939 5.86038L9.36239 5.96038C8.16239 6.44038 7.55839 6.71338 7.48039 7.24338C7.39839 7.80838 7.97039 8.29238 9.11439 9.25938L9.41039 9.50938C9.73639 9.78438 9.89839 9.92238 9.99139 10.1094C10.0854 10.2964 10.0984 10.5124 10.1244 10.9444L10.1484 11.3374C10.2424 12.8574 10.2884 13.6174 10.7834 13.8794C11.2774 14.1414 11.8914 13.7324 13.1194 12.9134L13.4374 12.7014C13.7864 12.4684 13.9604 12.3514 14.1604 12.3204C14.3604 12.2894 14.5614 12.3444 14.9664 12.4564L15.3334 12.5584C16.7564 12.9524 17.4674 13.1494 17.8544 12.7464C18.2424 12.3434 18.0494 11.6064 17.6644 10.1334L17.5644 9.75238C17.4554 9.33338 17.4004 9.12438 17.4304 8.91738C17.4604 8.71038 17.5724 8.52838 17.7964 8.16538L17.9994 7.83538C18.7844 6.55938 19.1774 5.92138 18.9234 5.40938C18.6684 4.89938 17.9354 4.85238 16.4694 4.76138L16.0894 4.73738C15.6734 4.71138 15.4654 4.69838 15.2844 4.60238C15.1034 4.50638 14.9704 4.33838 14.7044 4.00238" fill="#FFC800"/>
<path d="M8.83513 13.3263C6.69813 14.3703 4.91913 16.0243 4.24813 18.0003C3.49613 13.2933 4.54013 10.2533 6.21313 8.36328C6.35713 8.65828 6.54513 8.90228 6.71313 9.09328C7.06313 9.48928 7.56513 9.91328 8.07513 10.3443L8.44213 10.6543L8.61213 10.7993C8.61713 10.8633 8.62213 10.9393 8.62713 11.0363L8.65713 11.5213C8.69713 12.1763 8.73713 12.8153 8.83513 13.3263Z" fill="#D29922"/>
</svg>
