<svg viewBox="0 0 20 20" fill="none" xmlns="http://www.w3.org/2000/svg">
<path d="M16 18C16 14.8848 12.5734 12.3524 9.5 12.3524C6.42662 12.3524 3 14.8848 3 18M9.5 9.52951C10.4851 9.52951 11.4298 9.13287 12.1263 8.42684C12.8229 7.72081 13.2142 6.76323 13.2142 5.76476C13.2142 4.76628 12.8229 3.8087 12.1263 3.10267C11.4298 2.39664 10.4851 2 9.5 2C8.51494 2 7.57023 2.39664 6.87369 3.10267C6.17715 3.8087 5.78584 4.76628 5.78584 5.76476C5.78584 6.76323 6.17715 7.72081 6.87369 8.42684C7.57023 9.13287 8.51494 9.52951 9.5 9.52951Z" stroke="currentColor" stroke-width="1.2" stroke-linecap="round" stroke-linejoin="round"/>
</svg>
