<svg viewBox="0 0 14 14" fill="none" xmlns="http://www.w3.org/2000/svg">
<path d="M2.33464 11.0827V4.66602H11.668V6.58518C12.088 6.71352 12.4846 6.90018 12.8346 7.15102V4.66602C12.8346 4.01852 12.3155 3.49935 11.668 3.49935H9.33464V2.33268C9.33464 1.68518 8.81547 1.16602 8.16797 1.16602H5.83464C5.18714 1.16602 4.66797 1.68518 4.66797 2.33268V3.49935H2.33464C1.68714 3.49935 1.1738 4.01852 1.1738 4.66602L1.16797 11.0827C1.16797 11.7302 1.68714 12.2493 2.33464 12.2493H6.81464C6.63964 11.8877 6.52297 11.4968 6.46464 11.0827H2.33464ZM5.83464 2.33268H8.16797V3.49935H5.83464V2.33268Z" fill="currentColor"/>
<path d="M10.4987 7.58398C8.8887 7.58398 7.58203 8.89065 7.58203 10.5007C7.58203 12.1107 8.8887 13.4173 10.4987 13.4173C12.1087 13.4173 13.4154 12.1107 13.4154 10.5007C13.4154 8.89065 12.1087 7.58398 10.4987 7.58398ZM11.4612 11.8715L10.207 10.6173V8.75065H10.7904V10.3782L11.8695 11.4573L11.4612 11.8715Z" fill="currentColor"/>
</svg>
