<svg width="12" height="11" viewBox="0 0 12 11" fill="none" xmlns="http://www.w3.org/2000/svg">
<path d="M6 8.86111C6.75 8.86111 7.3875 8.59375 7.9125 8.05903C8.4375 7.52431 8.7 6.875 8.7 6.11111C8.7 5.34722 8.4375 4.69792 7.9125 4.16319C7.3875 3.62847 6.75 3.36111 6 3.36111C5.25 3.36111 4.6125 3.62847 4.0875 4.16319C3.5625 4.69792 3.3 5.34722 3.3 6.11111C3.3 6.875 3.5625 7.52431 4.0875 8.05903C4.6125 8.59375 5.25 8.86111 6 8.86111ZM6 7.63889C5.58 7.63889 5.225 7.4912 4.935 7.19583C4.645 6.90046 4.5 6.53889 4.5 6.11111C4.5 5.68333 4.645 5.32176 4.935 5.02639C5.225 4.73102 5.58 4.58333 6 4.58333C6.42 4.58333 6.775 4.73102 7.065 5.02639C7.355 5.32176 7.5 5.68333 7.5 6.11111C7.5 6.53889 7.355 6.90046 7.065 7.19583C6.775 7.4912 6.42 7.63889 6 7.63889ZM1.2 11C0.87 11 0.5875 10.8803 0.3525 10.641C0.1175 10.4016 0 10.1139 0 9.77778V2.44444C0 2.10833 0.1175 1.8206 0.3525 1.58125C0.5875 1.3419 0.87 1.22222 1.2 1.22222H3.09L4.2 0H7.8L8.91 1.22222H10.8C11.13 1.22222 11.4125 1.3419 11.6475 1.58125C11.8825 1.8206 12 2.10833 12 2.44444V9.77778C12 10.1139 11.8825 10.4016 11.6475 10.641C11.4125 10.8803 11.13 11 10.8 11H1.2ZM1.2 9.77778H10.8V2.44444H8.37L7.275 1.22222H4.725L3.63 2.44444H1.2V9.77778Z" fill="white"/>
</svg>
