<svg width="14" height="14" viewBox="0 0 14 14" fill="none" xmlns="http://www.w3.org/2000/svg">
<g clip-path="url(#clip0_673_4006)">
<path fill-rule="evenodd" clip-rule="evenodd" d="M2.5 2.25H3.663C3.836 3.106 4.593 3.75 5.5 3.75H8.5C9.407 3.75 10.164 3.106 10.338 2.25H11.5C11.707 2.25 11.875 2.418 11.875 2.625V12.375C11.875 12.4745 11.8355 12.5698 11.7652 12.6402C11.6948 12.7105 11.5995 12.75 11.5 12.75H2.5C2.40054 12.75 2.30516 12.7105 2.23483 12.6402C2.16451 12.5698 2.125 12.4745 2.125 12.375V2.625C2.125 2.418 2.293 2.25 2.5 2.25ZM11.5 1H10.159C9.844 0.405 9.219 0 8.5 0H5.5C4.78 0 4.156 0.405 3.841 1H2.5C1.603 1 0.875 1.728 0.875 2.625V12.375C0.875 13.273 1.603 14 2.5 14H11.5C12.398 14 13.125 13.273 13.125 12.375V2.625C13.125 1.728 12.398 1 11.5 1ZM5.832 5.739C5.832 5.538 5.995 5.375 6.196 5.375H7.804C8.005 5.375 8.168 5.538 8.168 5.739V7.082H9.511C9.712 7.082 9.875 7.245 9.875 7.446V9.054C9.875 9.15054 9.83665 9.24312 9.76839 9.31139C9.70012 9.37965 9.60754 9.418 9.511 9.418H8.168V10.761C8.168 10.8575 8.12965 10.9501 8.06139 11.0184C7.99312 11.0866 7.90054 11.125 7.804 11.125H6.196C6.09946 11.125 6.00688 11.0866 5.93861 11.0184C5.87035 10.9501 5.832 10.8575 5.832 10.761V9.418H4.489C4.4412 9.418 4.39387 9.40858 4.3497 9.39029C4.30554 9.372 4.26541 9.34519 4.23161 9.31139C4.19781 9.27759 4.171 9.23746 4.15271 9.1933C4.13442 9.14913 4.125 9.1018 4.125 9.054V7.446C4.125 7.245 4.288 7.082 4.489 7.082H5.832V5.739Z" fill="#E22A36"/>
</g>
<defs>
<clipPath id="clip0_673_4006">
<rect width="14" height="14" fill="white"/>
</clipPath>
</defs>
</svg>
