<svg width="15" height="11" viewBox="0 0 15 11" fill="none" xmlns="http://www.w3.org/2000/svg">
<path d="M9.33333 0C10.7478 0 12.1044 0.561903 13.1046 1.5621C14.1048 2.56229 14.6667 3.91885 14.6667 5.33333C14.6667 6.74782 14.1048 8.10438 13.1046 9.10457C12.1044 10.1048 10.7478 10.6667 9.33333 10.6667C7.91884 10.6667 6.56229 10.1048 5.5621 9.10457C4.5619 8.10438 4 6.74782 4 5.33333C4 3.91885 4.5619 2.56229 5.5621 1.5621C6.56229 0.561903 7.91884 0 9.33333 0ZM9.33333 1.33333C8.27247 1.33333 7.25505 1.75476 6.50491 2.50491C5.75476 3.25505 5.33333 4.27247 5.33333 5.33333C5.33333 6.3942 5.75476 7.41162 6.50491 8.16176C7.25505 8.91191 8.27247 9.33333 9.33333 9.33333C10.3942 9.33333 11.4116 8.91191 12.1618 8.16176C12.9119 7.41162 13.3333 6.3942 13.3333 5.33333C13.3333 4.27247 12.9119 3.25505 12.1618 2.50491C11.4116 1.75476 10.3942 1.33333 9.33333 1.33333ZM8.66667 2.66667H9.66667V5.18667L11.22 6.74L10.5133 7.44667L8.66667 5.6V2.66667ZM0.666667 9.33333C0.489856 9.33333 0.320286 9.2631 0.195262 9.13807C0.0702379 9.01305 0 8.84348 0 8.66667C0 8.48986 0.0702379 8.32029 0.195262 8.19526C0.320286 8.07024 0.489856 8 0.666667 8H3.22C3.42667 8.47333 3.69333 8.92 4 9.33333H0.666667ZM1.33333 6C1.15652 6 0.986953 5.92976 0.861929 5.80474C0.736904 5.67971 0.666667 5.51014 0.666667 5.33333C0.666667 5.15652 0.736904 4.98695 0.861929 4.86193C0.986953 4.7369 1.15652 4.66667 1.33333 4.66667H2.7L2.66667 5.33333L2.7 6H1.33333ZM2 2.66667C1.82319 2.66667 1.65362 2.59643 1.5286 2.4714C1.40357 2.34638 1.33333 2.17681 1.33333 2C1.33333 1.82319 1.40357 1.65362 1.5286 1.5286C1.65362 1.40357 1.82319 1.33333 2 1.33333H4C3.69333 1.74667 3.42667 2.19333 3.22 2.66667H2Z" fill="#E22A36"/>
</svg>
