<svg width="16" height="16" viewBox="0 0 16 16" fill="none" xmlns="http://www.w3.org/2000/svg">
<path d="M10.6654 2.66732C10.6654 1.92732 11.2587 1.33398 11.9987 1.33398C12.7387 1.33398 13.332 1.92732 13.332 2.66732C13.332 3.40732 12.7387 4.00065 11.9987 4.00065C11.2587 4.00065 10.6654 3.40732 10.6654 2.66732ZM13.332 14.0007V10.6673H14.072C14.5254 10.6673 14.8454 10.2207 14.7054 9.78732L13.3054 5.58065C13.2162 5.31513 13.046 5.08422 12.8188 4.9204C12.5916 4.75658 12.3188 4.66807 12.0387 4.66732H11.9587C11.6784 4.66706 11.4051 4.75518 11.1777 4.91915C10.9503 5.08311 10.7803 5.31458 10.692 5.58065L10.1187 7.30065C10.8387 7.70065 11.332 8.45399 11.332 9.33399V14.6673H12.6654C13.032 14.6673 13.332 14.3673 13.332 14.0007ZM8.33203 7.66732C8.88537 7.66732 9.33203 7.22065 9.33203 6.66732C9.33203 6.11399 8.88537 5.66732 8.33203 5.66732C7.7787 5.66732 7.33203 6.11399 7.33203 6.66732C7.33203 7.22065 7.7787 7.66732 8.33203 7.66732ZM3.66536 4.00065C4.40536 4.00065 4.9987 3.40732 4.9987 2.66732C4.9987 1.92732 4.40536 1.33398 3.66536 1.33398C2.92536 1.33398 2.33203 1.92732 2.33203 2.66732C2.33203 3.40732 2.92536 4.00065 3.66536 4.00065ZM4.9987 14.0007V10.0007H5.33203C5.6987 10.0007 5.9987 9.70065 5.9987 9.33399V6.00065C5.9987 5.26732 5.3987 4.66732 4.66536 4.66732H2.66536C1.93203 4.66732 1.33203 5.26732 1.33203 6.00065V9.33399C1.33203 9.70065 1.63203 10.0007 1.9987 10.0007H2.33203V14.0007C2.33203 14.3673 2.63203 14.6673 2.9987 14.6673H4.33203C4.6987 14.6673 4.9987 14.3673 4.9987 14.0007ZM6.66537 9.33399V11.334C6.66537 11.7007 6.96537 12.0007 7.33203 12.0007V14.0007C7.33203 14.3673 7.63203 14.6673 7.9987 14.6673H8.66537C9.03203 14.6673 9.33203 14.3673 9.33203 14.0007V12.0007C9.6987 12.0007 9.9987 11.7007 9.9987 11.334V9.33399C9.9987 8.78732 9.54537 8.33399 8.9987 8.33399H7.66537C7.1187 8.33399 6.66537 8.78732 6.66537 9.33399Z" fill="#E22A36"/>
</svg>
