<svg width="20" height="20" viewBox="0 0 20 20" fill="none" xmlns="http://www.w3.org/2000/svg">
<g clip-path="url(#clip0_673_4014)">
<path d="M1.66797 9.99935C1.66797 14.6018 5.3988 18.3327 10.0013 18.3327C14.6038 18.3327 18.3346 14.6018 18.3346 9.99935C18.3346 5.39685 14.6038 1.66602 10.0013 1.66602C5.3988 1.66602 1.66797 5.39685 1.66797 9.99935Z" stroke="#E22A36" stroke-width="1.5" stroke-linecap="round" stroke-linejoin="round"/>
<path d="M10.8331 1.70703C10.8331 1.70703 13.3331 4.9987 13.3331 9.9987C13.3331 14.9987 10.8331 18.2904 10.8331 18.2904M9.16641 18.2904C9.16641 18.2904 6.66641 14.9987 6.66641 9.9987C6.66641 4.9987 9.16641 1.70703 9.16641 1.70703M2.19141 12.9154H17.8081M2.19141 7.08203H17.8081" stroke="#E22A36" stroke-width="1.5" stroke-linecap="round" stroke-linejoin="round"/>
</g>
<defs>
<clipPath id="clip0_673_4014">
<rect width="20" height="20" fill="white"/>
</clipPath>
</defs>
</svg>
