<svg width="12" height="12" viewBox="0 0 12 12" fill="none" xmlns="http://www.w3.org/2000/svg">
<path d="M10.75 10.75L8.21881 8.21881M8.21881 8.21881C8.62507 7.81254 8.94734 7.33023 9.16721 6.79941C9.38709 6.2686 9.50025 5.69968 9.50025 5.12513C9.50025 4.55058 9.38709 3.98165 9.16721 3.45084C8.94734 2.92002 8.62507 2.43771 8.21881 2.03144C7.81254 1.62518 7.33023 1.30291 6.79941 1.08304C6.2686 0.863166 5.69968 0.75 5.12513 0.75C4.55058 0.75 3.98165 0.863166 3.45084 1.08304C2.92002 1.30291 2.43771 1.62518 2.03144 2.03144C1.21095 2.85194 0.75 3.96477 0.75 5.12513C0.75 6.28548 1.21095 7.39831 2.03144 8.21881C2.85194 9.0393 3.96477 9.50025 5.12513 9.50025C6.28548 9.50025 7.39831 9.0393 8.21881 8.21881Z" stroke="white" stroke-width="1.5" stroke-linecap="round" stroke-linejoin="round"/>
</svg>
